<svg width="0" height="0" style="display: none">

  <symbol id="arrow-left" viewBox="0 0 20 20" xmlns="http://www.w3.org/2000/svg">
    <path d="M1 10H18" stroke="currentColor" stroke-width="1.25" />
    <path d="M7.375 3.625L1 10L7.375 16.375" stroke="currentColor" stroke-width="1.25" />
  </symbol>
  <symbol id="arrow-right" viewBox="0 0 20 20" xmlns="http://www.w3.org/2000/svg">
    <path d="M18 10H1" stroke="currentColor" stroke-width="1.25" />
    <path d="M11.625 3.625L18 10L11.625 16.375" stroke="currentColor" stroke-width="1.25" />
  </symbol>
  <symbol id="badge" viewBox="0 0 20 20" xmlns="http://www.w3.org/2000/svg">
    <path d="M16.6667 7.50001C16.6667 8.37549 16.4943 9.2424 16.1592 10.0512C15.8242 10.8601 15.3331 11.595 14.7141 12.2141C14.095 12.8331 13.3601 13.3242 12.5513 13.6592C11.7424 13.9942 10.8755 14.1667 10 14.1667C9.12456 14.1667 8.25766 13.9942 7.44882 13.6592C6.63998 13.3242 5.90505 12.8331 5.286 12.2141C4.66694 11.595 4.17587 10.8601 3.84084 10.0512C3.50581 9.2424 3.33337 8.37549 3.33337 7.50001C3.33337 5.7319 4.03575 4.03621 5.286 2.78596C6.53624 1.53572 8.23193 0.833344 10 0.833344C11.7682 0.833344 13.4638 1.53572 14.7141 2.78596C15.9643 4.03621 16.6667 5.7319 16.6667 7.50001Z" stroke="currentColor" stroke-width="1.25" />
    <path d="M9.95527 4.03664L11.1361 6.06003L13.1586 6.56611L11.81 8.08342L12.1474 10.4442L9.95527 9.43298L7.76318 10.4433L8.10057 8.08249L6.75195 6.56518L8.77441 6.0591L9.95527 4.03664Z" stroke="currentColor" stroke-width="1.25" />
    <path d="M5.83337 12.5V19.1667L10 16.9444L14.1667 19.1667V12.5" stroke="currentColor" stroke-width="1.25" />
  </symbol>
  <symbol id="bell" viewBox="0 0 20 20" xmlns="http://www.w3.org/2000/svg">
    <path d="M4.53125 7.65625V11.5625L2.96875 14.6875H17.0312L15.4688 11.5625V7.65625C15.4688 6.20585 14.8926 4.81485 13.867 3.78926C12.8414 2.76367 11.4504 2.1875 10 2.1875C8.5496 2.1875 7.1586 2.76367 6.13301 3.78926C5.10742 4.81485 4.53125 6.20585 4.53125 7.65625Z" stroke="currentColor" stroke-width="1.25" />
    <path d="M8.4375 17.8125H11.5625" stroke="currentColor" stroke-width="1.25" />
  </symbol>
  <symbol id="bullets" viewBox="0 0 20 20" xmlns="http://www.w3.org/2000/svg">
    <path d="M8.4375 3.75H18.5938" stroke="currentColor" stroke-width="1.25" />
    <path d="M8.4375 10H18.5938" stroke="currentColor" stroke-width="1.25" />
    <path d="M8.4375 16.25H18.5938" stroke="currentColor" stroke-width="1.25" />
    <path d="M2.1875 2.1875H5.3125V5.3125H2.1875V2.1875Z" stroke="currentColor" stroke-width="1.25" />
    <path d="M2.1875 8.4375H5.3125V11.5625H2.1875V8.4375Z" stroke="currentColor" stroke-width="1.25" />
    <path d="M2.1875 14.6875H5.3125V17.8125H2.1875V14.6875Z" stroke="currentColor" stroke-width="1.25" />
  </symbol>
  <symbol id="calendar-add" viewBox="0 0 20 20" xmlns="http://www.w3.org/2000/svg">
    <path d="M2.1875 3.75H17.8125V17.8125H2.1875V3.75Z" stroke="currentColor" stroke-width="1.25" />
    <path d="M6 1.40625V5.40625" stroke="currentColor" stroke-width="1.25" />
    <path d="M14 1.40625V5.40625" stroke="currentColor" stroke-width="1.25" />
    <path d="M6.875 12.845H13.125M10 9.72V15.97" stroke="currentColor" stroke-width="1.25" />
    <path d="M2.1875 7.875H17.8125" stroke="currentColor" stroke-width="1.25" />
  </symbol>
  <symbol id="calendar" viewBox="0 0 20 20" xmlns="http://www.w3.org/2000/svg">
    <path d="M2.1875 3.75H17.8125V17.8125H2.1875V3.75Z" stroke="currentColor" stroke-width="1.25" />
    <path d="M6 1.40625V5.40625" stroke="currentColor" stroke-width="1.25" />
    <path d="M14 1.40625V5.40625" stroke="currentColor" stroke-width="1.25" />
    <path d="M2.1875 7.875H17.8125" stroke="currentColor" stroke-width="1.25" />
  </symbol>
  <symbol id="check-circle" viewBox="0 0 16 16" xmlns="http://www.w3.org/2000/svg">
    <path d="M16 8C16 12.4183 12.4183 16 8 16C3.58172 16 0 12.4183 0 8C0 3.58172 3.58172 0 8 0C12.4183 0 16 3.58172 16 8Z" fill="currentColor" />
    <path d="M4.5 7.5L7.5 10.5L11.5 5" stroke="white" stroke-width="2" />
  </symbol>
  <symbol id="check" viewBox="0 0 20 20" xmlns="http://www.w3.org/2000/svg">
    <path d="M2.5 9.5L8 15L18 5" stroke="currentColor" stroke-width="1.25" />
  </symbol>
  <symbol id="chevron-down" viewBox="0 0 16 16" xmlns="http://www.w3.org/2000/svg">
    <path transform="rotate(180)" transform-origin="8 8" fill-rule="evenodd" clip-rule="evenodd" d="M0.792969 11L2.20718 12.4142L8.00008 6.62129L13.793 12.4142L15.2072 11L8.00008 3.79286L0.792969 11Z" fill="currentColor" />
  </symbol>
  <symbol id="chevron-left" viewBox="0 0 16 16" xmlns="http://www.w3.org/2000/svg">
    <path transform="rotate(-90)" transform-origin="8 8" fill-rule="evenodd" clip-rule="evenodd" d="M0.792969 11L2.20718 12.4142L8.00008 6.62129L13.793 12.4142L15.2072 11L8.00008 3.79286L0.792969 11Z" fill="currentColor" />
  </symbol>
  <symbol id="chevron-right" viewBox="0 0 16 16" xmlns="http://www.w3.org/2000/svg">
    <path transform="rotate(90)" transform-origin="8 8" fill-rule="evenodd" clip-rule="evenodd" d="M0.792969 11L2.20718 12.4142L8.00008 6.62129L13.793 12.4142L15.2072 11L8.00008 3.79286L0.792969 11Z" fill="currentColor" />
  </symbol>
  <symbol id="chevron-up" viewBox="0 0 16 16" xmlns="http://www.w3.org/2000/svg">
    <path fill-rule="evenodd" clip-rule="evenodd" d="M0.792969 11L2.20718 12.4142L8.00008 6.62129L13.793 12.4142L15.2072 11L8.00008 3.79286L0.792969 11Z" fill="currentColor" />
  </symbol>
  <symbol id="clock" viewBox="0 0 20 20" xmlns="http://www.w3.org/2000/svg">
    <path d="M10 6.09375V10L13.125 13.125" stroke="currentColor" stroke-width="1.25" />
    <circle cx="10" cy="10" r="8" stroke="currentColor" stroke-width="1.25" />
  </symbol>
  <symbol id="close" viewBox="0 0 26 25" xmlns="http://www.w3.org/2000/svg">
    <line x1="1.70711" y1="1.29289" x2="24.7071" y2="24.2929" stroke="currentColor" stroke-width="2" />
    <line y1="-1" x2="32.5269" y2="-1" transform="matrix(-0.707107 0.707107 0.707107 0.707107 25 2)" stroke="currentColor" stroke-width="2" />
  </symbol>
  <symbol id="download" viewBox="0 0 20 20" xmlns="http://www.w3.org/2000/svg">
    <path d="M2 14V18H18V14" stroke="currentColor" stroke-width="1.25" />
    <path d="M10 15L10 1.5" stroke="currentColor" stroke-width="1.25" />
    <path d="M4.42859 9.42859L10 15L15.5714 9.42859" stroke="currentColor" stroke-width="1.25" />
  </symbol>
  <symbol id="exclamation-circle" viewBox="0 0 16 16" xmlns="http://www.w3.org/2000/svg">
    <path fill-rule="evenodd" clip-rule="evenodd" d="M8 16C12.4183 16 16 12.4183 16 8C16 3.58172 12.4183 0 8 0C3.58172 0 0 3.58172 0 8C0 12.4183 3.58172 16 8 16ZM6.83881 3.54547H9.16089L8.94854 10.1055H7.05116L6.83881 3.54547ZM9.20244 11.9336C9.19321 12.5984 8.63461 13.1339 8.00216 13.1339C7.33738 13.1339 6.79264 12.5984 6.80187 11.9336C6.79264 11.2781 7.33738 10.7472 8.00216 10.7472C8.63461 10.7472 9.19321 11.2781 9.20244 11.9336Z" fill="currentColor" />
  </symbol>
  <symbol id="external-link" viewBox="0 0 20 20" xmlns="http://www.w3.org/2000/svg">
    <path d="M9 2H2V18H18V11" stroke="currentColor" stroke-width="1.25" />
    <path d="M12 2H18V8" stroke="currentColor" stroke-width="1.25" />
    <path d="M18 2L7 13" stroke="currentColor" stroke-width="1.25" />
  </symbol>
  <symbol id="facebook" viewBox="0 0 28 28" xmlns="http://www.w3.org/2000/svg">
    <path fill-rule="evenodd" clip-rule="evenodd" d="M1.16699 1.1665H26.8337V26.8332H17.5003V19.2498H20.417V15.7498H17.5003V11.6665H22.167V6.99984H17.5003C14.923 6.99984 12.8337 9.08917 12.8337 11.6665V15.7498H9.91699V19.2498H12.8337V26.8332H1.16699V1.1665Z" fill="currentColor" />
  </symbol>
  <symbol id="institution" viewBox="0 0 20 20" xmlns="http://www.w3.org/2000/svg">
    <path d="M4.41663 13.9792V7.91666H5.66663V13.9792H4.41663ZM9.45829 13.9792V7.91666H10.7083V13.9792H9.45829ZM2 16.4792V15.2292H18V16.4792H2ZM14.3333 13.9792V7.91666H15.5833V13.9792H14.3333ZM1.66663 6.66666V5.56249L9.99996 0.812469L18.3333 5.56249V6.66666H1.66663ZM4.45829 5.41666H15.5416L9.99996 2.24997L4.45829 5.41666Z" fill="currentColor" />
    <path d="M1 18V19.25H18.9999V18H1Z" fill="currentColor" />
  </symbol>
  <symbol id="link" viewBox="0 0 28 28" fill="none" xmlns="http://www.w3.org/2000/svg">
    <path fill-rule="evenodd" clip-rule="evenodd" d="M18.9996 0.174316L27.8255 9.00014L20.2876 16.5381L18.9617 15.2122L25.1738 9.00014L18.9996 2.82597L12.7876 9.03805L11.4617 7.71223L18.9996 0.174316ZM8.33673 18.3373L18.3367 8.33728L19.6626 9.66311L9.66256 19.6631L8.33673 18.3373ZM9.03757 12.7881L2.82548 19.0002L8.99965 25.1744L15.2117 18.9623L16.5376 20.2881L8.99965 27.826L0.173828 19.0002L7.71174 11.4623L9.03757 12.7881Z" fill="currentColor" />
  </symbol>
  <symbol id="linkedin" viewBox="0 0 22 22" xmlns="http://www.w3.org/2000/svg">
    <path d="M19.8202 0.870117H2.17561C1.36711 0.870117 0.710205 1.53621 0.710205 2.3539V19.9663C0.710205 20.784 1.36711 21.4501 2.17561 21.4501H19.8202C20.6287 21.4501 21.2902 20.784 21.2902 19.9663V2.3539C21.2902 1.53621 20.6287 0.870117 19.8202 0.870117ZM6.93014 18.5101H3.87989V8.68868H6.93474V18.5101H6.93014ZM5.40502 7.3473C4.42655 7.3473 3.63642 6.55259 3.63642 5.57871C3.63642 4.60484 4.42655 3.81012 5.40502 3.81012C6.37889 3.81012 7.17361 4.60484 7.17361 5.57871C7.17361 6.55718 6.38349 7.3473 5.40502 7.3473ZM18.364 18.5101H15.3137V13.7326C15.3137 12.5934 15.2908 11.128 13.7289 11.128C12.1395 11.128 11.896 12.3683 11.896 13.6499V18.5101H8.84574V8.68868H11.772V10.0301H11.8133C12.2221 9.2583 13.219 8.44521 14.7028 8.44521C17.7898 8.44521 18.364 10.4802 18.364 13.1262V18.5101Z" fill="currentColor" />
  </symbol>
  <symbol id="location" viewBox="0 0 20 20" xmlns="http://www.w3.org/2000/svg">
    <path d="M5.21429 12.8313L5.21431 12.8313L5.2104 12.8267C4.07527 11.4985 3.4273 9.82194 3.37487 8.07581C3.33494 6.3634 3.99771 4.7097 5.2098 3.50008C6.44937 2.26731 8.12664 1.57523 9.87477 1.57523C11.623 1.57523 13.3003 2.26743 14.5399 3.5002C15.7512 4.70987 16.4139 6.36357 16.3732 8.07578C16.3209 9.82191 15.6737 11.4985 14.5386 12.8267L14.5386 12.8267L14.5348 12.8313L9.87452 18.3917L5.21429 12.8313Z" stroke="currentColor" stroke-width="1.25" />
    <path d="M11.6796 9.67986C11.234 10.125 10.6302 10.3749 10.0004 10.375C9.37004 10.3739 8.76669 10.1236 8.32183 9.67873C7.87677 9.23362 7.62613 8.62945 7.625 7.99982C7.62513 7.37036 7.8754 6.76648 8.32053 6.32065C8.76648 5.87529 9.37047 5.625 10 5.625C10.6295 5.625 11.2335 5.87528 11.6794 6.32058C12.1247 6.76658 12.375 7.37069 12.375 8.00031C12.375 8.6299 12.1248 9.23392 11.6796 9.67986Z" stroke="currentColor" stroke-width="1.25" />
  </symbol>
  <symbol id="lock" viewBox="0 0 16 16" xmlns="http://www.w3.org/2000/svg">
    <path fill-rule="evenodd" clip-rule="evenodd" d="M12 6.66667V4C12 1.79133 10.2087 0 8 0C5.79133 0 4 1.79133 4 4V6.66667H2V16H14V6.66667H12ZM8.66667 11.8153V13.3333H7.33333V11.8153C6.93667 11.584 6.66667 11.1593 6.66667 10.6667C6.66667 9.93067 7.264 9.33333 8 9.33333C8.736 9.33333 9.33333 9.93067 9.33333 10.6667C9.33333 11.1587 9.064 11.584 8.66667 11.8153ZM5.33333 4V6.66667H10.6667V4C10.6667 2.52933 9.47 1.33333 8 1.33333C6.52933 1.33333 5.33333 2.52933 5.33333 4Z" fill="currentColor" />
  </symbol>
  <symbol id="menu" viewBox="0 0 24 24" xmlns="http://www.w3.org/2000/svg">
    <rect width="24" height="2" fill="currentColor" />
    <rect y="11" width="24" height="2" fill="currentColor" />
    <rect y="22" width="24" height="2" fill="currentColor" />
  </symbol>
  <symbol id="news" viewBox="0 0 20 20" xmlns="http://www.w3.org/2000/svg">
    <rect x="1.625" y="2.625" width="16.75" height="14.75" stroke="currentColor" stroke-width="1.25" />
    <rect x="4.625" y="6.625" width="3.75" height="3.75" stroke="currentColor" stroke-width="1.25" />
    <line x1="10.75" y1="6.625" x2="16" y2="6.625" stroke="currentColor" stroke-width="1.25" />
    <line x1="10.75" y1="10.375" x2="16" y2="10.375" stroke="currentColor" stroke-width="1.25" />
    <line x1="4" y1="13.875" x2="16" y2="13.875" stroke="currentColor" stroke-width="1.25" />
  </symbol>
  <symbol id="newspaper" viewBox="0 0 20 20" xmlns="http://www.w3.org/2000/svg">
    <path d="M14.6875 7.46094H17.8125V17.0312H2.1875V2.96875H14.6875V15.0781" stroke="currentColor" stroke-width="1.25" />
    <path d="M4.92188 9.21875V6.09375H11.9531V9.21875H4.92188Z" stroke="currentColor" stroke-width="1.25" />
    <path d="M4.33594 13.125H12.5391" stroke="currentColor" stroke-width="1.25" />
  </symbol>
  <symbol id="paper" viewBox="0 0 20 20" xmlns="http://www.w3.org/2000/svg">
    <path d="M2 2H18V18H2V2Z" stroke="currentColor" stroke-width="1.25" />
    <path d="M5.3125 6H14.6875" stroke="currentColor" stroke-width="1.25" />
    <path d="M5.3125 10H14.6875" stroke="currentColor" stroke-width="1.25" />
    <path d="M5.3125 14H14.6875" stroke="currentColor" stroke-width="1.25" />
  </symbol>
  <symbol id="pin" viewBox="0 0 20 20" xmlns="http://www.w3.org/2000/svg">
    <path d="M13.9063 10L17.422 8.04688L11.9532 2.57812L10.0001 6.09375L3.35938 8.82812L11.1719 16.6406L13.9063 10Z" stroke="currentColor" stroke-width="1.25" />
    <path d="M1.79688 18.2031L7.26562 12.7344" stroke="currentColor" stroke-width="1.25" />
  </symbol>
  <symbol id="presentation" viewBox="0 0 20 22" xmlns="http://www.w3.org/2000/svg">
    <line x1="0.625" y1="13.375" x2="19.375" y2="13.375" stroke="currentColor" stroke-width="1.25" stroke-linecap="square" />
    <path d="M4 21L6.25 13.5M16 21L13.75 13.5M10 1L10.5 2.66667H9.5L10 1Z" stroke="currentColor" stroke-width="1.25" stroke-linejoin="bevel" />
    <path d="M1.625 13.375V2.625H18.375V13.375H1.625Z" stroke="currentColor" stroke-width="1.25" />
  </symbol>
  <symbol id="search" viewBox="0 0 20 20" xmlns="http://www.w3.org/2000/svg">
    <path fill-rule="evenodd" clip-rule="evenodd" d="M14.4241 12.8936L19.2162 17.6922C19.2268 17.7027 19.237 17.7134 19.247 17.7242L20 18.4772L18.4769 20.0002L17.7647 19.288C17.7393 19.2667 17.7146 19.244 17.6906 19.2199L12.8721 14.4473C11.4528 15.5467 9.7385 16.0828 8.02533 16.0828C5.96392 16.0828 3.9286 15.3048 2.3493 13.7238C-0.783101 10.5879 -0.783101 5.49494 2.3493 2.35904C3.92849 0.776912 5.96392 0 8.02533 0C10.0867 0 12.1221 0.777984 13.7014 2.35904C16.5933 5.22689 16.8338 9.75772 14.4241 12.8936ZM3.90123 12.1971C5.02551 13.2955 6.47206 13.9122 8.05135 13.9122C9.60452 13.9122 11.1033 13.3227 12.2015 12.1971C13.2986 11.0716 13.9146 9.62343 13.9146 8.04237C13.9146 6.46131 13.3258 4.98704 12.2015 3.88762C11.0772 2.78926 9.63065 2.17253 8.05135 2.17253C6.47206 2.17253 4.99944 2.78819 3.90123 3.88762C1.62536 6.19337 1.62536 9.91871 3.90123 12.1971Z" fill="currentColor" />
  </symbol>

  <symbol id="serc-star" viewBox="0 0 74 74" xmlns="http://www.w3.org/2000/svg">
    <path d="M41.76 24.9599C41.76 27.2399 39.96 29.0399 37.68 29.0399C35.4 29.0399 33.6 27.2399 33.6 24.9599C33.6 22.6799 35.4 20.8799 37.68 20.8799C39.96 20.8799 41.76 22.6799 41.76 24.9599Z" fill="currentColor" />
    <path d="M64.2 16.56C62.64 18.12 60.12 18.12 58.56 16.56C57 15 57 12.48 58.56 10.92C60.12 9.36 62.64 9.36 64.2 10.92C65.76 12.48 65.76 15 64.2 16.56Z" fill="currentColor" />
    <path d="M40.92 13.0803C40.92 14.8803 39.48 16.3203 37.68 16.3203C35.88 16.3203 34.44 14.8803 34.44 13.0803C34.44 11.2803 35.88 9.84033 37.68 9.84033C39.48 9.84033 40.92 11.2803 40.92 13.0803Z" fill="currentColor" />
    <path d="M55.2 24.3596C53.88 25.6796 51.84 25.6796 50.64 24.3596C49.32 23.0396 49.32 20.9996 50.64 19.7996C51.96 18.4796 54 18.4796 55.2 19.7996C56.52 21.1196 56.52 23.1596 55.2 24.3596Z" fill="currentColor" />
    <path d="M40.2 2.4C40.2 3.72 39.12 4.8 37.8 4.8C36.48 4.8 35.4 3.72 35.4 2.4C35.4 1.08 36.48 0 37.8 0C39.12 0 40.2 1.08 40.2 2.4Z" fill="currentColor" />
    <path d="M49.2 41.7601C46.92 41.7601 45.12 39.9601 45.12 37.6801C45.12 35.4001 46.92 33.6001 49.2 33.6001C51.48 33.6001 53.28 35.4001 53.28 37.6801C53.28 39.9601 51.48 41.7601 49.2 41.7601Z" fill="currentColor" />
    <path d="M61.08 40.9204C59.28 40.9204 57.84 39.4804 57.84 37.6804C57.84 35.8804 59.28 34.4404 61.08 34.4404C62.88 34.4404 64.32 35.8804 64.32 37.6804C64.32 39.4804 62.88 40.9204 61.08 40.9204Z" fill="currentColor" />
    <path d="M71.64 40.1999C70.32 40.1999 69.24 39.1199 69.24 37.7999C69.24 36.4799 70.32 35.3999 71.64 35.3999C72.96 35.3999 74.04 36.4799 74.04 37.7999C74.04 39.1199 72.96 40.1999 71.64 40.1999Z" fill="currentColor" />
    <path d="M32.4 49.2001C32.4 46.9201 34.2 45.1201 36.48 45.1201C38.76 45.1201 40.56 46.9201 40.56 49.2001C40.56 51.4801 38.76 53.2801 36.48 53.2801C34.2 53.2801 32.4 51.4801 32.4 49.2001Z" fill="currentColor" />
    <path d="M33.24 61.0803C33.24 59.2803 34.68 57.8403 36.48 57.8403C38.28 57.8403 39.72 59.2803 39.72 61.0803C39.72 62.8803 38.28 64.3203 36.48 64.3203C34.68 64.3203 33.24 62.8803 33.24 61.0803Z" fill="currentColor" />
    <path d="M33.96 71.6402C33.96 70.3202 35.04 69.2402 36.36 69.2402C37.68 69.2402 38.76 70.3202 38.76 71.6402C38.76 72.9602 37.68 74.0402 36.36 74.0402C35.04 74.0402 33.96 72.9602 33.96 71.6402Z" fill="currentColor" />
    <path d="M24.96 32.3999C27.24 32.3999 29.04 34.1999 29.04 36.4799C29.04 38.7599 27.24 40.5599 24.96 40.5599C22.68 40.5599 20.88 38.7599 20.88 36.4799C20.88 34.1999 22.68 32.3999 24.96 32.3999Z" fill="currentColor" />
    <path d="M13.08 33.2402C14.88 33.2402 16.32 34.6802 16.32 36.4802C16.32 38.2802 14.88 39.7202 13.08 39.7202C11.28 39.7202 9.84 38.2802 9.84 36.4802C9.84 34.6802 11.28 33.2402 13.08 33.2402Z" fill="currentColor" />
    <path d="M2.4 33.96C3.72 33.96 4.8 35.04 4.8 36.36C4.8 37.68 3.72 38.76 2.4 38.76C1.08 38.76 0 37.68 0 36.36C0 35.04 1.08 33.96 2.4 33.96Z" fill="currentColor" />
    <path d="M46.92 31.5599C45.96 32.5199 44.4 32.5199 43.44 31.5599C42.48 30.5999 42.48 29.0399 43.44 28.0799C44.4 27.1199 45.96 27.1199 46.92 28.0799C47.88 29.0399 47.88 30.5999 46.92 31.5599Z" fill="currentColor" />
    <path d="M57.6 64.2001C56.04 62.6401 56.04 60.1201 57.6 58.5601C59.16 57.0001 61.68 57.0001 63.24 58.5601C64.8 60.1201 64.8 62.6401 63.24 64.2001C61.68 65.7601 59.16 65.7601 57.6 64.2001Z" fill="currentColor" />
    <path d="M49.8 55.1999C48.48 53.8799 48.48 51.8399 49.8 50.6399C51.12 49.3199 53.16 49.3199 54.36 50.6399C55.68 51.9599 55.68 53.9999 54.36 55.1999C53.04 56.5199 51 56.5199 49.8 55.1999Z" fill="currentColor" />
    <path d="M42.6 46.9202C41.64 45.9602 41.64 44.4002 42.6 43.4402C43.56 42.4802 45.12 42.4802 46.08 43.4402C47.04 44.4002 47.04 45.9602 46.08 46.9202C45.12 47.8802 43.56 47.8802 42.6 46.9202Z" fill="currentColor" />
    <path d="M9.96 57.5997C11.52 56.0397 14.04 56.0397 15.6 57.5997C17.16 59.1597 17.16 61.6797 15.6 63.2397C14.04 64.7997 11.52 64.7997 9.96 63.2397C8.4 61.6797 8.4 59.1597 9.96 57.5997Z" fill="currentColor" />
    <path d="M18.84 49.7996C20.16 48.4796 22.2 48.4796 23.4 49.7996C24.72 51.1196 24.72 53.1596 23.4 54.3596C22.08 55.6796 20.04 55.6796 18.84 54.3596C17.52 53.0396 17.52 50.9996 18.84 49.7996Z" fill="currentColor" />
    <path d="M27.24 42.5999C28.2 41.6399 29.76 41.6399 30.72 42.5999C31.68 43.5599 31.68 45.1199 30.72 46.0799C29.76 47.0399 28.2 47.0399 27.24 46.0799C26.28 45.1199 26.28 43.5599 27.24 42.5999Z" fill="currentColor" />
    <path d="M16.56 9.96004C18.12 11.52 18.12 14.04 16.56 15.6C15 17.16 12.48 17.16 10.92 15.6C9.36 14.04 9.36 11.52 10.92 9.96004C12.48 8.40004 15 8.40004 16.56 9.96004Z" fill="currentColor" />
    <path d="M24.36 18.8401C25.68 20.1601 25.68 22.2001 24.36 23.4001C23.04 24.7201 21 24.7201 19.8 23.4001C18.48 22.0801 18.48 20.0401 19.8 18.8401C21.12 17.5201 23.16 17.5201 24.36 18.8401Z" fill="currentColor" />
    <path d="M31.56 27.24C32.52 28.2 32.52 29.76 31.56 30.72C30.6 31.68 29.04 31.68 28.08 30.72C27.12 29.76 27.12 28.2 28.08 27.24C29.04 26.28 30.6 26.28 31.56 27.24Z" fill="currentColor" />
  </symbol>

  <symbol id="video" viewBox="0 0 20 20" xmlns="http://www.w3.org/2000/svg">
    <path d="M1.625 17.375V2.625H18.375V17.375H1.625Z" stroke="currentColor" stroke-width="1.25" />
    <path d="M7.875 6.81336L12.8425 10L7.875 13.1866L7.875 6.81336Z" stroke="currentColor" stroke-width="1.25" />
  </symbol>
  <symbol id="youtube" viewBox="0 0 24 17" xmlns="http://www.w3.org/2000/svg">
    <path d="M12.0724 0.660156H12.1976C13.3536 0.66436 19.211 0.706402 20.7903 1.12962C21.2678 1.25878 21.7028 1.51054 22.052 1.85974C22.4012 2.20894 22.6523 2.64335 22.7803 3.11956C22.9223 3.65208 23.0222 4.35697 23.0897 5.08428L23.1037 5.23002L23.1347 5.59438L23.1459 5.74012C23.2373 7.02098 23.2486 8.22055 23.25 8.4826V8.58771C23.2486 8.85957 23.2359 10.1404 23.1347 11.4745L23.1234 11.6217L23.1108 11.7674C23.0405 12.569 22.9364 13.365 22.7803 13.9508C22.6523 14.427 22.4012 14.8614 22.052 15.2106C21.7028 15.5598 21.2678 15.8115 20.7903 15.9407C19.159 16.3779 12.9584 16.4088 12.0991 16.4102H11.8994C11.4649 16.4102 9.66759 16.4017 7.7831 16.3373L7.54402 16.3289L7.42167 16.3233L7.18118 16.3135L6.9407 16.3037C5.37966 16.235 3.89317 16.1243 3.20828 15.9393C2.73101 15.8103 2.29606 15.5587 1.94687 15.2098C1.59767 14.8608 1.34646 14.4267 1.21831 13.9508C1.06221 13.3664 0.958138 12.569 0.887821 11.7674L0.87657 11.6203L0.86532 11.4745C0.795514 10.525 0.757053 9.57341 0.75 8.62134L0.75 8.44897C0.752813 8.14768 0.764063 7.10646 0.840006 5.95733L0.84985 5.81299L0.854069 5.74012L0.86532 5.59438L0.896259 5.23002L0.910323 5.08428C0.977827 4.35697 1.07768 3.65068 1.21972 3.11956C1.34765 2.64335 1.59877 2.20894 1.94798 1.85974C2.29718 1.51054 2.73224 1.25878 3.20969 1.12962C3.89457 0.947437 5.38107 0.835327 6.94211 0.765259L7.18118 0.755449L7.42307 0.747041L7.54402 0.742837L7.7845 0.733028C9.12293 0.690151 10.4619 0.666325 11.801 0.661558L12.0724 0.660156ZM9.75056 5.15855V11.9104L15.5967 8.53586L9.75056 5.15855Z" fill="currentColor" />
  </symbol>
</svg>