<svg width="0" height="0" style="display: none">

<symbol id="arrow-right" viewBox="0 -1.5 16.75 16.75" xmlns="http://www.w3.org/2000/svg">
  <path d="M16 7H0" stroke="currentColor" stroke-width="2" />
  <path d="M10 1L16 7L10 13" stroke="currentColor" stroke-width="2" fill="none" />
</symbol>
<symbol id="calendar" viewBox="0 0 20 20" xmlns="http://www.w3.org/2000/svg">
  <path d="M2.1875 3.75H17.8125V17.8125H2.1875V3.75Z" stroke="currentColor" stroke-width="1.25" />
  <path d="M6 1.40625V5.40625" stroke="currentColor" stroke-width="1.25" />
  <path d="M14 1.40625V5.40625" stroke="currentColor" stroke-width="1.25" />
  <path d="M2.1875 7.875H17.8125" stroke="currentColor" stroke-width="1.25" />
</symbol>
<symbol id="check-circle" viewBox="0 0 16 16" xmlns="http://www.w3.org/2000/svg">
  <path d="M16 8C16 12.4183 12.4183 16 8 16C3.58172 16 0 12.4183 0 8C0 3.58172 3.58172 0 8 0C12.4183 0 16 3.58172 16 8Z" fill="currentColor" />
  <path d="M4.5 7.5L7.5 10.5L11.5 5" stroke="white" stroke-width="2" />
</symbol>
<symbol id="check" viewBox="0 0 17 16" xmlns="http://www.w3.org/2000/svg">
  <path d="M5.7 14.025L0 8.325L1.425 6.9L5.7 11.175L14.875 2L16.3 3.425L5.7 14.025Z" fill="currentColor" />
</symbol>
<symbol id="chevron-down" viewBox="0 0 16 16" xmlns="http://www.w3.org/2000/svg">
  <path transform="rotate(180)" transform-origin="8 8" fill-rule="evenodd" clip-rule="evenodd" d="M0.792969 11L2.20718 12.4142L8.00008 6.62129L13.793 12.4142L15.2072 11L8.00008 3.79286L0.792969 11Z" fill="currentColor" />
</symbol>
<symbol id="chevron-left" viewBox="0 0 16 16" xmlns="http://www.w3.org/2000/svg">
  <path transform="rotate(-90)" transform-origin="8 8" fill-rule="evenodd" clip-rule="evenodd" d="M0.792969 11L2.20718 12.4142L8.00008 6.62129L13.793 12.4142L15.2072 11L8.00008 3.79286L0.792969 11Z" fill="currentColor" />
</symbol>
<symbol id="chevron-right" viewBox="0 0 16 16" xmlns="http://www.w3.org/2000/svg">
  <path transform="rotate(90)" transform-origin="8 8" fill-rule="evenodd" clip-rule="evenodd" d="M0.792969 11L2.20718 12.4142L8.00008 6.62129L13.793 12.4142L15.2072 11L8.00008 3.79286L0.792969 11Z" fill="currentColor" />
</symbol>
<symbol id="chevron-up" viewBox="0 0 16 16" xmlns="http://www.w3.org/2000/svg">
  <path fill-rule="evenodd" clip-rule="evenodd" d="M0.792969 11L2.20718 12.4142L8.00008 6.62129L13.793 12.4142L15.2072 11L8.00008 3.79286L0.792969 11Z" fill="currentColor" />
</symbol>
<symbol id="close" viewBox="0 0 26 25" xmlns="http://www.w3.org/2000/svg">
  <line x1="1.70711" y1="1.29289" x2="24.7071" y2="24.2929" stroke="currentColor" stroke-width="2" />
  <line y1="-1" x2="32.5269" y2="-1" transform="matrix(-0.707107 0.707107 0.707107 0.707107 25 2)" stroke="currentColor" stroke-width="2" />
</symbol>
<symbol id="exclamation-circle" viewBox="0 0 16 16" xmlns="http://www.w3.org/2000/svg">
  <path fill-rule="evenodd" clip-rule="evenodd" d="M8 16C12.4183 16 16 12.4183 16 8C16 3.58172 12.4183 0 8 0C3.58172 0 0 3.58172 0 8C0 12.4183 3.58172 16 8 16ZM6.83881 3.54547H9.16089L8.94854 10.1055H7.05116L6.83881 3.54547ZM9.20244 11.9336C9.19321 12.5984 8.63461 13.1339 8.00216 13.1339C7.33738 13.1339 6.79264 12.5984 6.80187 11.9336C6.79264 11.2781 7.33738 10.7472 8.00216 10.7472C8.63461 10.7472 9.19321 11.2781 9.20244 11.9336Z" fill="currentColor" />
</symbol>
<symbol id="linkedin" viewBox="0 0 22 22" xmlns="http://www.w3.org/2000/svg">
  <path d="M19.8202 0.870117H2.17561C1.36711 0.870117 0.710205 1.53621 0.710205 2.3539V19.9663C0.710205 20.784 1.36711 21.4501 2.17561 21.4501H19.8202C20.6287 21.4501 21.2902 20.784 21.2902 19.9663V2.3539C21.2902 1.53621 20.6287 0.870117 19.8202 0.870117ZM6.93014 18.5101H3.87989V8.68868H6.93474V18.5101H6.93014ZM5.40502 7.3473C4.42655 7.3473 3.63642 6.55259 3.63642 5.57871C3.63642 4.60484 4.42655 3.81012 5.40502 3.81012C6.37889 3.81012 7.17361 4.60484 7.17361 5.57871C7.17361 6.55718 6.38349 7.3473 5.40502 7.3473ZM18.364 18.5101H15.3137V13.7326C15.3137 12.5934 15.2908 11.128 13.7289 11.128C12.1395 11.128 11.896 12.3683 11.896 13.6499V18.5101H8.84574V8.68868H11.772V10.0301H11.8133C12.2221 9.2583 13.219 8.44521 14.7028 8.44521C17.7898 8.44521 18.364 10.4802 18.364 13.1262V18.5101Z" fill="currentColor" />
</symbol>
<symbol id="lock" viewBox="0 0 16 16" xmlns="http://www.w3.org/2000/svg">
  <path fill-rule="evenodd" clip-rule="evenodd" d="M12 6.66667V4C12 1.79133 10.2087 0 8 0C5.79133 0 4 1.79133 4 4V6.66667H2V16H14V6.66667H12ZM8.66667 11.8153V13.3333H7.33333V11.8153C6.93667 11.584 6.66667 11.1593 6.66667 10.6667C6.66667 9.93067 7.264 9.33333 8 9.33333C8.736 9.33333 9.33333 9.93067 9.33333 10.6667C9.33333 11.1587 9.064 11.584 8.66667 11.8153ZM5.33333 4V6.66667H10.6667V4C10.6667 2.52933 9.47 1.33333 8 1.33333C6.52933 1.33333 5.33333 2.52933 5.33333 4Z" fill="currentColor" />
</symbol>
<symbol id="menu" viewBox="0 0 24 24" xmlns="http://www.w3.org/2000/svg">
  <rect width="24" height="2" fill="currentColor" />
  <rect y="11" width="24" height="2" fill="currentColor" />
  <rect y="22" width="24" height="2" fill="currentColor" />
</symbol>
<symbol id="search" viewBox="0 0 20 20" xmlns="http://www.w3.org/2000/svg">
  <path fill-rule="evenodd" clip-rule="evenodd" d="M14.4241 12.8936L19.2162 17.6922C19.2268 17.7027 19.237 17.7134 19.247 17.7242L20 18.4772L18.4769 20.0002L17.7647 19.288C17.7393 19.2667 17.7146 19.244 17.6906 19.2199L12.8721 14.4473C11.4528 15.5467 9.7385 16.0828 8.02533 16.0828C5.96392 16.0828 3.9286 15.3048 2.3493 13.7238C-0.783101 10.5879 -0.783101 5.49494 2.3493 2.35904C3.92849 0.776912 5.96392 0 8.02533 0C10.0867 0 12.1221 0.777984 13.7014 2.35904C16.5933 5.22689 16.8338 9.75772 14.4241 12.8936ZM3.90123 12.1971C5.02551 13.2955 6.47206 13.9122 8.05135 13.9122C9.60452 13.9122 11.1033 13.3227 12.2015 12.1971C13.2986 11.0716 13.9146 9.62343 13.9146 8.04237C13.9146 6.46131 13.3258 4.98704 12.2015 3.88762C11.0772 2.78926 9.63065 2.17253 8.05135 2.17253C6.47206 2.17253 4.99944 2.78819 3.90123 3.88762C1.62536 6.19337 1.62536 9.91871 3.90123 12.1971Z" fill="currentColor" />
</symbol>
<symbol id="youtube" viewBox="0 0 24 17" xmlns="http://www.w3.org/2000/svg">
  <path d="M12.0724 0.660156H12.1976C13.3536 0.66436 19.211 0.706402 20.7903 1.12962C21.2678 1.25878 21.7028 1.51054 22.052 1.85974C22.4012 2.20894 22.6523 2.64335 22.7803 3.11956C22.9223 3.65208 23.0222 4.35697 23.0897 5.08428L23.1037 5.23002L23.1347 5.59438L23.1459 5.74012C23.2373 7.02098 23.2486 8.22055 23.25 8.4826V8.58771C23.2486 8.85957 23.2359 10.1404 23.1347 11.4745L23.1234 11.6217L23.1108 11.7674C23.0405 12.569 22.9364 13.365 22.7803 13.9508C22.6523 14.427 22.4012 14.8614 22.052 15.2106C21.7028 15.5598 21.2678 15.8115 20.7903 15.9407C19.159 16.3779 12.9584 16.4088 12.0991 16.4102H11.8994C11.4649 16.4102 9.66759 16.4017 7.7831 16.3373L7.54402 16.3289L7.42167 16.3233L7.18118 16.3135L6.9407 16.3037C5.37966 16.235 3.89317 16.1243 3.20828 15.9393C2.73101 15.8103 2.29606 15.5587 1.94687 15.2098C1.59767 14.8608 1.34646 14.4267 1.21831 13.9508C1.06221 13.3664 0.958138 12.569 0.887821 11.7674L0.87657 11.6203L0.86532 11.4745C0.795514 10.525 0.757053 9.57341 0.75 8.62134L0.75 8.44897C0.752813 8.14768 0.764063 7.10646 0.840006 5.95733L0.84985 5.81299L0.854069 5.74012L0.86532 5.59438L0.896259 5.23002L0.910323 5.08428C0.977827 4.35697 1.07768 3.65068 1.21972 3.11956C1.34765 2.64335 1.59877 2.20894 1.94798 1.85974C2.29718 1.51054 2.73224 1.25878 3.20969 1.12962C3.89457 0.947437 5.38107 0.835327 6.94211 0.765259L7.18118 0.755449L7.42307 0.747041L7.54402 0.742837L7.7845 0.733028C9.12293 0.690151 10.4619 0.666325 11.801 0.661558L12.0724 0.660156ZM9.75056 5.15855V11.9104L15.5967 8.53586L9.75056 5.15855Z" fill="currentColor" />
</symbol>
</svg>