<svg width="0" height="0" style="display: none">

<symbol id="check-circle" viewBox="0 0 16 16" xmlns="http://www.w3.org/2000/svg">
  <path d="M16 8C16 12.4183 12.4183 16 8 16C3.58172 16 0 12.4183 0 8C0 3.58172 3.58172 0 8 0C12.4183 0 16 3.58172 16 8Z" fill="currentColor" />
  <path d="M4.5 7.5L7.5 10.5L11.5 5" stroke="white" stroke-width="2" />
</symbol>
<symbol id="check" viewBox="0 0 17 16" xmlns="http://www.w3.org/2000/svg">
  <path d="M5.7 14.025L0 8.325L1.425 6.9L5.7 11.175L14.875 2L16.3 3.425L5.7 14.025Z" fill="currentColor" />
</symbol>
<symbol id="chevron-down" viewBox="0 0 16 16" xmlns="http://www.w3.org/2000/svg">
  <path transform="rotate(180)" transform-origin="8 8" fill-rule="evenodd" clip-rule="evenodd" d="M0.792969 11L2.20718 12.4142L8.00008 6.62129L13.793 12.4142L15.2072 11L8.00008 3.79286L0.792969 11Z" fill="currentColor" />
</symbol>
<symbol id="chevron-left" viewBox="0 0 16 16" xmlns="http://www.w3.org/2000/svg">
  <path transform="rotate(-90)" transform-origin="8 8" fill-rule="evenodd" clip-rule="evenodd" d="M0.792969 11L2.20718 12.4142L8.00008 6.62129L13.793 12.4142L15.2072 11L8.00008 3.79286L0.792969 11Z" fill="currentColor" />
</symbol>
<symbol id="chevron-right" viewBox="0 0 16 16" xmlns="http://www.w3.org/2000/svg">
  <path transform="rotate(90)" transform-origin="8 8" fill-rule="evenodd" clip-rule="evenodd" d="M0.792969 11L2.20718 12.4142L8.00008 6.62129L13.793 12.4142L15.2072 11L8.00008 3.79286L0.792969 11Z" fill="currentColor" />
</symbol>
<symbol id="chevron-up" viewBox="0 0 16 16" xmlns="http://www.w3.org/2000/svg">
  <path fill-rule="evenodd" clip-rule="evenodd" d="M0.792969 11L2.20718 12.4142L8.00008 6.62129L13.793 12.4142L15.2072 11L8.00008 3.79286L0.792969 11Z" fill="currentColor" />
</symbol>
<symbol id="close" viewBox="0 0 26 25" xmlns="http://www.w3.org/2000/svg">
  <line x1="1.70711" y1="1.29289" x2="24.7071" y2="24.2929" stroke="currentColor" stroke-width="2" />
  <line y1="-1" x2="32.5269" y2="-1" transform="matrix(-0.707107 0.707107 0.707107 0.707107 25 2)" stroke="currentColor" stroke-width="2" />
</symbol>
<symbol id="exclamation-circle" viewBox="0 0 16 16" xmlns="http://www.w3.org/2000/svg">
  <path fill-rule="evenodd" clip-rule="evenodd" d="M8 16C12.4183 16 16 12.4183 16 8C16 3.58172 12.4183 0 8 0C3.58172 0 0 3.58172 0 8C0 12.4183 3.58172 16 8 16ZM6.83881 3.54547H9.16089L8.94854 10.1055H7.05116L6.83881 3.54547ZM9.20244 11.9336C9.19321 12.5984 8.63461 13.1339 8.00216 13.1339C7.33738 13.1339 6.79264 12.5984 6.80187 11.9336C6.79264 11.2781 7.33738 10.7472 8.00216 10.7472C8.63461 10.7472 9.19321 11.2781 9.20244 11.9336Z" fill="currentColor" />
</symbol>
<symbol id="lock" viewBox="0 0 16 16" xmlns="http://www.w3.org/2000/svg">
  <path fill-rule="evenodd" clip-rule="evenodd" d="M12 6.66667V4C12 1.79133 10.2087 0 8 0C5.79133 0 4 1.79133 4 4V6.66667H2V16H14V6.66667H12ZM8.66667 11.8153V13.3333H7.33333V11.8153C6.93667 11.584 6.66667 11.1593 6.66667 10.6667C6.66667 9.93067 7.264 9.33333 8 9.33333C8.736 9.33333 9.33333 9.93067 9.33333 10.6667C9.33333 11.1587 9.064 11.584 8.66667 11.8153ZM5.33333 4V6.66667H10.6667V4C10.6667 2.52933 9.47 1.33333 8 1.33333C6.52933 1.33333 5.33333 2.52933 5.33333 4Z" fill="currentColor" />
</symbol>
<symbol id="menu" viewBox="0 0 24 24" xmlns="http://www.w3.org/2000/svg">
  <rect width="24" height="2" fill="currentColor" />
  <rect y="11" width="24" height="2" fill="currentColor" />
  <rect y="22" width="24" height="2" fill="currentColor" />
</symbol>
<symbol id="search" viewBox="0 0 25 25" xmlns="http://www.w3.org/2000/svg">
  <circle cx="9.94444" cy="9.94444" r="8.94444" stroke="currentColor" stroke-width="2" />
  <path d="M24 24C21.006 21.006 19.3274 19.3274 16.3333 16.3333" stroke="currentColor" stroke-width="2" />
</symbol>
</svg>