<svg width="277" height="75" viewBox="0 0 277 75" fill="none" xmlns="http://www.w3.org/2000/svg">
  <g clip-path="url(#clip0_996_6391)">
    <path d="M41.76 24.9599C41.76 27.2399 39.96 29.0399 37.68 29.0399C35.4 29.0399 33.6 27.2399 33.6 24.9599C33.6 22.6799 35.4 20.8799 37.68 20.8799C39.96 20.8799 41.76 22.6799 41.76 24.9599Z" fill="white" />
    <path d="M64.2 16.56C62.64 18.12 60.12 18.12 58.56 16.56C57 15 57 12.48 58.56 10.92C60.12 9.36 62.64 9.36 64.2 10.92C65.76 12.48 65.76 15 64.2 16.56Z" fill="white" />
    <path d="M40.92 13.0803C40.92 14.8803 39.48 16.3203 37.68 16.3203C35.88 16.3203 34.44 14.8803 34.44 13.0803C34.44 11.2803 35.88 9.84033 37.68 9.84033C39.48 9.84033 40.92 11.2803 40.92 13.0803Z" fill="white" />
    <path d="M55.2 24.3596C53.88 25.6796 51.84 25.6796 50.64 24.3596C49.32 23.0396 49.32 20.9996 50.64 19.7996C51.96 18.4796 54 18.4796 55.2 19.7996C56.52 21.1196 56.52 23.1596 55.2 24.3596Z" fill="white" />
    <path d="M40.2 2.4C40.2 3.72 39.12 4.8 37.8 4.8C36.48 4.8 35.4 3.72 35.4 2.4C35.4 1.08 36.48 0 37.8 0C39.12 0 40.2 1.08 40.2 2.4Z" fill="white" />
    <path d="M49.2 41.7601C46.92 41.7601 45.12 39.9601 45.12 37.6801C45.12 35.4001 46.92 33.6001 49.2 33.6001C51.48 33.6001 53.28 35.4001 53.28 37.6801C53.28 39.9601 51.48 41.7601 49.2 41.7601Z" fill="white" />
    <path d="M61.08 40.9204C59.28 40.9204 57.84 39.4804 57.84 37.6804C57.84 35.8804 59.28 34.4404 61.08 34.4404C62.88 34.4404 64.32 35.8804 64.32 37.6804C64.32 39.4804 62.88 40.9204 61.08 40.9204Z" fill="white" />
    <path d="M71.64 40.1999C70.32 40.1999 69.24 39.1199 69.24 37.7999C69.24 36.4799 70.32 35.3999 71.64 35.3999C72.96 35.3999 74.04 36.4799 74.04 37.7999C74.04 39.1199 72.96 40.1999 71.64 40.1999Z" fill="white" />
    <path d="M32.4 49.2001C32.4 46.9201 34.2 45.1201 36.48 45.1201C38.76 45.1201 40.56 46.9201 40.56 49.2001C40.56 51.4801 38.76 53.2801 36.48 53.2801C34.2 53.2801 32.4 51.4801 32.4 49.2001Z" fill="white" />
    <path d="M33.24 61.0803C33.24 59.2803 34.68 57.8403 36.48 57.8403C38.28 57.8403 39.72 59.2803 39.72 61.0803C39.72 62.8803 38.28 64.3203 36.48 64.3203C34.68 64.3203 33.24 62.8803 33.24 61.0803Z" fill="white" />
    <path d="M33.96 71.6402C33.96 70.3202 35.04 69.2402 36.36 69.2402C37.68 69.2402 38.76 70.3202 38.76 71.6402C38.76 72.9602 37.68 74.0402 36.36 74.0402C35.04 74.0402 33.96 72.9602 33.96 71.6402Z" fill="white" />
    <path d="M24.96 32.3999C27.24 32.3999 29.04 34.1999 29.04 36.4799C29.04 38.7599 27.24 40.5599 24.96 40.5599C22.68 40.5599 20.88 38.7599 20.88 36.4799C20.88 34.1999 22.68 32.3999 24.96 32.3999Z" fill="white" />
    <path d="M13.08 33.2402C14.88 33.2402 16.32 34.6802 16.32 36.4802C16.32 38.2802 14.88 39.7202 13.08 39.7202C11.28 39.7202 9.84 38.2802 9.84 36.4802C9.84 34.6802 11.28 33.2402 13.08 33.2402Z" fill="white" />
    <path d="M2.4 33.96C3.72 33.96 4.8 35.04 4.8 36.36C4.8 37.68 3.72 38.76 2.4 38.76C1.08 38.76 0 37.68 0 36.36C0 35.04 1.08 33.96 2.4 33.96Z" fill="white" />
    <path d="M46.92 31.5599C45.96 32.5199 44.4 32.5199 43.44 31.5599C42.48 30.5999 42.48 29.0399 43.44 28.0799C44.4 27.1199 45.96 27.1199 46.92 28.0799C47.88 29.0399 47.88 30.5999 46.92 31.5599Z" fill="white" />
    <path d="M57.6 64.2001C56.04 62.6401 56.04 60.1201 57.6 58.5601C59.16 57.0001 61.68 57.0001 63.24 58.5601C64.8 60.1201 64.8 62.6401 63.24 64.2001C61.68 65.7601 59.16 65.7601 57.6 64.2001Z" fill="white" />
    <path d="M49.8 55.1999C48.48 53.8799 48.48 51.8399 49.8 50.6399C51.12 49.3199 53.16 49.3199 54.36 50.6399C55.68 51.9599 55.68 53.9999 54.36 55.1999C53.04 56.5199 51 56.5199 49.8 55.1999Z" fill="white" />
    <path d="M42.6 46.9202C41.64 45.9602 41.64 44.4002 42.6 43.4402C43.56 42.4802 45.12 42.4802 46.08 43.4402C47.04 44.4002 47.04 45.9602 46.08 46.9202C45.12 47.8802 43.56 47.8802 42.6 46.9202Z" fill="white" />
    <path d="M9.96 57.5997C11.52 56.0397 14.04 56.0397 15.6 57.5997C17.16 59.1597 17.16 61.6797 15.6 63.2397C14.04 64.7997 11.52 64.7997 9.96 63.2397C8.4 61.6797 8.4 59.1597 9.96 57.5997Z" fill="white" />
    <path d="M18.84 49.7996C20.16 48.4796 22.2 48.4796 23.4 49.7996C24.72 51.1196 24.72 53.1596 23.4 54.3596C22.08 55.6796 20.04 55.6796 18.84 54.3596C17.52 53.0396 17.52 50.9996 18.84 49.7996Z" fill="white" />
    <path d="M27.24 42.5999C28.2 41.6399 29.76 41.6399 30.72 42.5999C31.68 43.5599 31.68 45.1199 30.72 46.0799C29.76 47.0399 28.2 47.0399 27.24 46.0799C26.28 45.1199 26.28 43.5599 27.24 42.5999Z" fill="white" />
    <path d="M16.56 9.96004C18.12 11.52 18.12 14.04 16.56 15.6C15 17.16 12.48 17.16 10.92 15.6C9.36 14.04 9.36 11.52 10.92 9.96004C12.48 8.40004 15 8.40004 16.56 9.96004Z" fill="white" />
    <path d="M24.36 18.8401C25.68 20.1601 25.68 22.2001 24.36 23.4001C23.04 24.7201 21 24.7201 19.8 23.4001C18.48 22.0801 18.48 20.0401 19.8 18.8401C21.12 17.5201 23.16 17.5201 24.36 18.8401Z" fill="white" />
    <path d="M31.56 27.24C32.52 28.2 32.52 29.76 31.56 30.72C30.6 31.68 29.04 31.68 28.08 30.72C27.12 29.76 27.12 28.2 28.08 27.24C29.04 26.28 30.6 26.28 31.56 27.24Z" fill="white" />
    <path d="M105.12 25.8002C103.8 27.2402 100.56 27.1202 99.84 27.1202H92.76C91.2 27.1202 89.64 27.0002 88.8 26.4002C87.96 25.8002 87.48 24.7202 87.48 24.0002V21.8402H92.04V22.3202C92.04 22.6802 92.04 22.9202 92.28 23.2802C92.64 23.7602 93.12 23.7602 93.6 23.7602H99.84C100.44 23.7602 100.92 23.7602 101.4 23.4002C101.64 23.1602 101.76 22.9202 101.76 22.6802V22.3202C101.76 21.8402 101.64 21.4802 101.16 21.2402C100.8 21.0002 100.08 21.0002 99.48 21.0002H92.52C90.96 21.0002 89.52 20.6402 88.68 20.0402C87.48 18.9602 87.36 17.5202 87.36 16.9202V15.9602C87.36 14.2802 87.6 12.8402 89.04 11.8802C90.12 11.1602 91.8 11.1602 93.36 11.1602H99.6C101.4 11.1602 104.4 11.5202 105.24 12.9602C105.72 13.8002 105.84 14.4002 105.84 15.3602V16.3202H101.28V15.7202C101.28 15.3602 101.04 15.1202 100.92 15.0002C100.68 14.7602 100.32 14.7602 99.96 14.7602H93.72C93.24 14.7602 92.88 14.7602 92.52 15.0002C92.16 15.2402 91.92 15.6002 91.92 15.9602V16.3202C91.92 16.6802 92.04 17.0402 92.28 17.1602C92.52 17.4002 92.88 17.4002 93.24 17.4002L101.16 17.6402C102.48 17.6402 103.92 17.8802 104.52 18.2402C105.72 19.0802 106.08 20.6402 106.08 21.9602V23.0402C106.08 24.2402 105.84 25.0802 105 25.9202L105.12 25.8002Z" fill="white" />
    <path d="M128.4 21.36V27.12H122.88V21.48L113.64 11.04H120.36L125.52 17.76L130.8 11.04H137.64L128.4 21.36Z" fill="white" />
    <path d="M162.96 25.8002C161.64 27.2402 158.4 27.1202 157.68 27.1202H150.6C149.04 27.1202 147.48 27.0002 146.64 26.4002C145.8 25.8002 145.32 24.7202 145.32 24.0002V21.8402H149.88V22.3202C149.88 22.6802 149.88 22.9202 150.12 23.2802C150.48 23.7602 150.96 23.7602 151.44 23.7602H157.68C158.28 23.7602 158.76 23.7602 159.24 23.4002C159.48 23.1602 159.6 22.9202 159.6 22.6802V22.3202C159.6 21.8402 159.48 21.4802 159 21.2402C158.64 21.0002 157.92 21.0002 157.32 21.0002H150.36C148.8 21.0002 147.36 20.6402 146.52 20.0402C145.32 18.9602 145.2 17.5202 145.2 16.9202V15.9602C145.2 14.2802 145.44 12.8402 146.88 11.8802C147.96 11.1602 149.64 11.1602 151.2 11.1602H157.44C159.24 11.1602 162.24 11.5202 163.08 12.9602C163.56 13.8002 163.68 14.4002 163.68 15.3602V16.3202H159.12V15.7202C159.12 15.3602 158.88 15.1202 158.76 15.0002C158.52 14.7602 158.16 14.7602 157.8 14.7602H151.56C151.08 14.7602 150.72 14.7602 150.36 15.0002C150 15.2402 149.76 15.6002 149.76 15.9602V16.3202C149.76 16.6802 149.88 17.0402 150.12 17.1602C150.36 17.4002 150.72 17.4002 151.08 17.4002L159 17.6402C160.32 17.6402 161.76 17.8802 162.36 18.2402C163.56 19.0802 163.92 20.6402 163.92 21.9602V23.0402C163.92 24.2402 163.68 25.0802 162.84 25.9202L162.96 25.8002Z" fill="white" />
    <path d="M183.6 15.12V27.12H178.32V15.12H171.36V11.04H190.32V15.12H183.6Z" fill="white" />
    <path d="M197.76 27.12V11.04H214.56V15H202.56V17.28H213.96V20.76H202.56V23.16H214.68V27.12H197.64H197.76Z" fill="white" />
    <path d="M244.08 27.12V14.88L237.96 27.12H234.24L227.88 15V27.12H222.72V11.04H231.48L236.04 21.48L240.48 11.04H249.12V27.12H244.2H244.08Z" fill="white" />
    <path d="M274.92 25.8002C273.6 27.2402 270.36 27.1202 269.64 27.1202H262.56C261 27.1202 259.44 27.0002 258.6 26.4002C257.76 25.8002 257.28 24.7202 257.28 24.0002V21.8402H261.84V22.3202C261.84 22.6802 261.84 22.9202 262.08 23.2802C262.44 23.7602 262.92 23.7602 263.4 23.7602H269.64C270.24 23.7602 270.72 23.7602 271.2 23.4002C271.44 23.1602 271.56 22.9202 271.56 22.6802V22.3202C271.56 21.8402 271.44 21.4802 270.96 21.2402C270.6 21.0002 269.88 21.0002 269.28 21.0002H262.32C260.76 21.0002 259.32 20.6402 258.48 20.0402C257.28 18.9602 257.16 17.5202 257.16 16.9202V15.9602C257.16 14.2802 257.4 12.8402 258.84 11.8802C259.92 11.1602 261.6 11.1602 263.16 11.1602H269.4C271.2 11.1602 274.2 11.5202 275.04 12.9602C275.52 13.8002 275.64 14.4002 275.64 15.3602V16.3202H271.08V15.7202C271.08 15.3602 270.84 15.1202 270.72 15.0002C270.48 14.7602 270.12 14.7602 269.76 14.7602H263.52C263.04 14.7602 262.68 14.7602 262.32 15.0002C261.96 15.2402 261.72 15.6002 261.72 15.9602V16.3202C261.72 16.6802 261.84 17.0402 262.08 17.1602C262.32 17.4002 262.68 17.4002 263.04 17.4002L270.96 17.6402C272.28 17.6402 273.72 17.8802 274.32 18.2402C275.52 19.0802 275.88 20.6402 275.88 21.9602V23.0402C275.88 24.2402 275.64 25.0802 274.8 25.9202L274.92 25.8002Z" fill="white" />
    <path d="M86.88 50.2799V34.9199H101.64V36.7199H89.04V41.5199H101.16V43.3199H89.04V48.4799H101.76V50.2799H86.76H86.88Z" fill="white" />
    <path d="M120.24 50.2799L106.8 36.5999V50.2799H104.88V34.9199H108L121.44 48.5999V34.9199H123.48V50.2799H120.24Z" fill="white" />
    <path d="M143.88 48.7198C142.44 50.5198 139.32 50.2798 138.48 50.2798H133.56C132.6 50.2798 129 50.2798 127.8 49.0798C126.6 47.8798 126.36 46.6798 126.36 44.8798V40.3198C126.36 39.1198 126.36 37.0798 127.92 35.8798C129.24 34.7998 132.36 34.7998 134.28 34.7998H135.96C138.72 34.7998 141.24 34.7998 142.92 35.9998C144 36.7198 144.24 38.2798 144.24 38.8798V39.7198H142.08V38.8798C142.08 38.2798 141.84 37.7998 141.36 37.5598C140.64 36.9598 138.84 36.7198 137.28 36.7198H133.2C132.36 36.7198 129.72 36.7198 129.12 37.4398C128.28 38.2798 128.28 40.0798 128.28 40.6798V43.4398C128.28 44.8798 128.28 46.6798 129 47.2798C129.84 47.9998 131.16 48.1198 132.6 48.1198H138.36C139.68 48.1198 141.12 48.1198 141.84 47.5198C142.44 47.0398 142.56 46.0798 142.56 44.9998V44.0398H134.76V42.1198H144.6V45.3598C144.6 46.5598 144.36 47.5198 143.76 48.3598L143.88 48.7198Z" fill="white" />
    <path d="M147.72 50.2799V34.9199H149.76V50.2799H147.72Z" fill="white" />
    <path d="M168.6 50.2799L155.16 36.5999V50.2799H153.24V34.9199H156.36L169.8 48.5999V34.9199H171.84V50.2799H168.6Z" fill="white" />
    <path d="M174.84 50.2799V34.9199H189.6V36.7199H177V41.5199H189.12V43.3199H177V48.4799H189.72V50.2799H174.72H174.84Z" fill="white" />
    <path d="M192.96 50.2799V34.9199H207.72V36.7199H195.12V41.5199H207.24V43.3199H195.12V48.4799H207.84V50.2799H192.84H192.96Z" fill="white" />
    <path d="M227.16 42.84C226.32 43.56 225.6 43.68 225.6 43.68C225.6 43.68 226.68 43.8 227.4 44.88C227.88 45.48 228 46.2 228 46.8V50.4H225.96V46.44C225.96 45.72 225.96 45.24 225.36 44.76C225 44.4 224.28 44.4 223.56 44.4H213V50.4H210.96V35.04H223.8C225 35.04 226.08 35.28 226.8 36C227.52 36.72 228 37.56 228 39.36V40.2C228 40.92 228 42.12 227.16 42.84ZM225.96 39.48C225.96 38.64 225.96 37.8 225.24 37.2C224.88 36.84 224.16 36.72 223.56 36.72H213V42.6H223.44C224.28 42.6 225 42.6 225.48 42C225.84 41.64 225.96 40.92 225.96 40.08V39.48Z" fill="white" />
    <path d="M231.24 50.2799V34.9199H233.28V50.2799H231.24Z" fill="white" />
    <path d="M252 50.2799L238.56 36.5999V50.2799H236.64V34.9199H239.76L253.2 48.5999V34.9199H255.24V50.2799H252Z" fill="white" />
    <path d="M275.64 48.7198C274.2 50.5198 271.08 50.2798 270.24 50.2798H265.32C264.36 50.2798 260.76 50.2798 259.56 49.0798C258.36 47.8798 258.12 46.6798 258.12 44.8798V40.3198C258.12 39.1198 258.12 37.0798 259.68 35.8798C261 34.7998 264.12 34.7998 266.04 34.7998H267.72C270.48 34.7998 273 34.7998 274.68 35.9998C275.76 36.7198 276 38.2798 276 38.8798V39.7198H273.84V38.8798C273.84 38.2798 273.6 37.7998 273.12 37.5598C272.4 36.9598 270.6 36.7198 269.04 36.7198H264.96C264.12 36.7198 261.48 36.7198 260.88 37.4398C260.04 38.2798 260.04 40.0798 260.04 40.6798V43.4398C260.04 44.8798 260.04 46.6798 260.76 47.2798C261.6 47.9998 262.92 48.1198 264.36 48.1198H270.12C271.44 48.1198 272.88 48.1198 273.6 47.5198C274.2 47.0398 274.32 46.0798 274.32 44.9998V44.0398H266.52V42.1198H276.36V45.3598C276.36 46.5598 276.12 47.5198 275.52 48.3598L275.64 48.7198Z" fill="white" />
    <path d="M91.44 58.9199C93.96 58.9199 95.16 60.3599 95.16 61.9199C95.16 63.4799 94.8 63.5999 94.08 64.3199C95.16 65.1599 95.16 65.8799 95.16 67.0799V67.4399C95.16 67.5599 95.04 67.6799 94.92 67.6799H94.2C94.08 67.6799 93.96 67.5599 93.96 67.4399V67.0799C93.96 65.3999 93.48 65.1599 92.4 65.1599C91.32 65.1599 92.28 65.1599 92.16 65.1599H87.72V67.4399C87.72 67.5599 87.6 67.6799 87.48 67.6799H86.76C86.64 67.6799 86.52 67.5599 86.52 67.4399V59.1599C86.52 59.0399 86.64 58.9199 86.76 58.9199H91.56H91.44ZM87.72 63.9599H91.92C93.12 63.8399 93.84 62.9999 93.84 62.1599C93.84 61.3199 93 60.2399 91.44 60.2399H87.72V63.9599Z" fill="white" />
    <path d="M108.12 58.9198C108.24 58.9198 108.36 59.0398 108.36 59.1598V59.8798C108.36 59.9998 108.24 60.1198 108.12 60.1198H100.8V62.6398H104.88C105 62.6398 105.12 62.7598 105.12 62.8798V63.5998C105.12 63.7198 105 63.8398 104.88 63.8398H100.8V66.3598H108.12C108.24 66.3598 108.36 66.4798 108.36 66.5998V67.3198C108.36 67.4398 108.24 67.5598 108.12 67.5598H99.84C99.72 67.5598 99.6 67.4398 99.6 67.3198V59.0398C99.6 58.9198 99.72 58.7998 99.84 58.7998H108.12V58.9198Z" fill="white" />
    <path d="M120.72 58.9199C120.84 58.9199 120.96 59.0399 120.96 59.1599V59.8799C120.96 59.9999 120.84 60.1199 120.72 60.1199H115.92C114.48 60.1199 113.88 60.7199 113.88 61.3199C113.88 61.9199 114.6 62.5199 115.92 62.5199H118.32C120.48 62.5199 121.56 63.7199 121.56 64.9199C121.56 66.1199 120.36 67.5599 117.84 67.5599H113.04C112.92 67.5599 112.8 67.4399 112.8 67.3199V66.5999C112.8 66.4799 112.92 66.3599 113.04 66.3599H117.84C119.4 66.3599 120.12 65.7599 120.12 65.1599C120.12 64.5599 119.4 63.9599 117.84 63.9599H115.56C113.4 63.9599 112.32 62.6399 112.32 61.4399C112.32 60.2399 113.52 58.9199 115.92 58.9199H120.72Z" fill="white" />
    <path d="M134.16 58.9198C134.28 58.9198 134.4 59.0398 134.4 59.1598V59.8798C134.4 59.9998 134.28 60.1198 134.16 60.1198H126.84V62.6398H130.92C131.04 62.6398 131.16 62.7598 131.16 62.8798V63.5998C131.16 63.7198 131.04 63.8398 130.92 63.8398H126.84V66.3598H134.16C134.28 66.3598 134.4 66.4798 134.4 66.5998V67.3198C134.4 67.4398 134.28 67.5598 134.16 67.5598H125.88C125.76 67.5598 125.64 67.4398 125.64 67.3198V59.0398C125.64 58.9198 125.76 58.7998 125.88 58.7998H134.16V58.9198Z" fill="white" />
    <path d="M144 58.9199C148.2 58.9199 148.44 60.7199 148.44 62.9999V67.4399C148.44 67.5599 148.32 67.6799 148.2 67.6799H147.48C147.36 67.6799 147.24 67.5599 147.24 67.4399V64.5599H140.4V67.4399C140.4 67.5599 140.28 67.6799 140.16 67.6799H139.44C139.32 67.6799 139.2 67.5599 139.2 67.4399V62.9999C139.2 60.5999 139.32 58.9199 143.64 58.9199H144.24H144ZM143.64 60.2399H142.92C140.88 60.2399 140.28 60.4799 140.28 63.3599H147.12C147.12 60.4799 146.52 60.2399 144.48 60.2399H143.52H143.64Z" fill="white" />
    <path d="M157.92 58.9199C160.44 58.9199 161.64 60.3599 161.64 61.9199C161.64 63.4799 161.28 63.5999 160.56 64.3199C161.64 65.1599 161.64 65.8799 161.64 67.0799V67.4399C161.64 67.5599 161.52 67.6799 161.4 67.6799H160.68C160.56 67.6799 160.44 67.5599 160.44 67.4399V67.0799C160.44 65.3999 159.96 65.1599 158.88 65.1599C157.8 65.1599 158.76 65.1599 158.64 65.1599H154.2V67.4399C154.2 67.5599 154.08 67.6799 153.96 67.6799H153.24C153.12 67.6799 153 67.5599 153 67.4399V59.1599C153 59.0399 153.12 58.9199 153.24 58.9199H158.04H157.92ZM154.2 63.9599H158.4C159.6 63.8399 160.32 62.9999 160.32 62.1599C160.32 61.3199 159.48 60.2399 157.92 60.2399H154.2V63.9599Z" fill="white" />
    <path d="M174.36 58.9207C174.48 58.9207 174.6 59.0407 174.6 59.1607V59.8807C174.6 60.0007 174.48 60.1207 174.36 60.1207H169.56C168 60.1207 167.16 61.6807 167.16 63.2407C167.16 64.8007 167.88 66.3607 169.44 66.3607H174.24C174.36 66.3607 174.48 66.4807 174.48 66.6007V67.3207C174.48 67.4407 174.36 67.5607 174.24 67.5607H169.44C166.92 67.5607 165.72 65.4007 165.72 63.1207C165.72 60.8407 166.92 58.6807 169.44 58.6807H174.24L174.36 58.9207Z" fill="white" />
    <path d="M180 58.9199C180.12 58.9199 180.24 59.0399 180.24 59.1599V62.6399H186.48V59.1599C186.48 59.0399 186.6 58.9199 186.72 58.9199H187.44C187.56 58.9199 187.68 59.0399 187.68 59.1599V67.4399C187.68 67.5599 187.56 67.6799 187.44 67.6799H186.72C186.6 67.6799 186.48 67.5599 186.48 67.4399V63.8399H180.24V67.4399C180.24 67.5599 180.12 67.6799 180 67.6799H179.28C179.16 67.6799 179.04 67.5599 179.04 67.4399V59.1599C179.04 59.0399 179.16 58.9199 179.28 58.9199H180Z" fill="white" />
    <path d="M209.64 58.9207C209.76 58.9207 209.88 59.0407 209.88 59.1607V59.8807C209.88 60.0007 209.76 60.1207 209.64 60.1207H204.84C203.28 60.1207 202.44 61.6807 202.44 63.2407C202.44 64.8007 203.16 66.3607 204.72 66.3607H209.52C209.64 66.3607 209.76 66.4807 209.76 66.6007V67.3207C209.76 67.4407 209.64 67.5607 209.52 67.5607H204.72C202.2 67.5607 201 65.4007 201 63.1207C201 60.8407 202.2 58.6807 204.72 58.6807H209.52L209.64 58.9207Z" fill="white" />
    <path d="M222.84 58.9198C222.96 58.9198 223.08 59.0398 223.08 59.1598V59.8798C223.08 59.9998 222.96 60.1198 222.84 60.1198H215.52V62.6398H219.6C219.72 62.6398 219.84 62.7598 219.84 62.8798V63.5998C219.84 63.7198 219.72 63.8398 219.6 63.8398H215.52V66.3598H222.84C222.96 66.3598 223.08 66.4798 223.08 66.5998V67.3198C223.08 67.4398 222.96 67.5598 222.84 67.5598H214.56C214.44 67.5598 214.32 67.4398 214.32 67.3198V59.0398C214.32 58.9198 214.44 58.7998 214.56 58.7998H222.84V58.9198Z" fill="white" />
    <path d="M235.68 65.0398V59.1598C235.68 59.0398 235.8 58.9198 235.92 58.9198H236.64C236.76 58.9198 236.88 59.0398 236.88 59.1598V67.4398C236.88 67.5598 236.76 67.6798 236.64 67.6798H235.92C235.8 67.6798 235.68 67.5598 235.68 67.4398C233.16 63.1198 231.96 60.1198 230.04 60.1198C228.12 60.1198 228.84 60.1198 228.84 61.3198V67.3198C228.84 67.4398 228.72 67.5598 228.6 67.5598H227.88C227.76 67.5598 227.64 67.4398 227.64 67.3198V61.3198C227.64 58.7998 228.84 58.7998 230.16 58.7998C232.68 58.7998 234 61.7998 235.8 64.9198L235.68 65.0398Z" fill="white" />
    <path d="M245.28 58.9199H250.08C250.2 58.9199 250.32 59.0399 250.32 59.1599V59.8799C250.32 59.9999 250.32 60.1199 250.08 60.1199H246.6V67.4399C246.6 67.5599 246.48 67.6799 246.36 67.6799H245.64C245.52 67.6799 245.4 67.5599 245.4 67.4399V60.1199H241.92C241.8 60.1199 241.68 59.9999 241.68 59.8799V59.1599C241.68 59.0399 241.8 58.9199 241.92 58.9199H245.4H245.28Z" fill="white" />
    <path d="M263.04 58.9198C263.16 58.9198 263.28 59.0398 263.28 59.1598V59.8798C263.28 59.9998 263.16 60.1198 263.04 60.1198H255.72V62.6398H259.92C260.04 62.6398 260.16 62.7598 260.16 62.8798V63.5998C260.16 63.7198 260.04 63.8398 259.92 63.8398H255.72V66.3598H263.04C263.16 66.3598 263.28 66.4798 263.28 66.5998V67.3198C263.28 67.4398 263.16 67.5598 263.04 67.5598H254.76C254.64 67.5598 254.52 67.4398 254.52 67.3198V59.0398C254.52 58.9198 254.64 58.7998 254.76 58.7998H263.04V58.9198Z" fill="white" />
    <path d="M272.76 58.9199C275.28 58.9199 276.48 60.3599 276.48 61.9199C276.48 63.4799 276.12 63.5999 275.4 64.3199C276.48 65.1599 276.48 65.8799 276.48 67.0799V67.4399C276.48 67.5599 276.36 67.6799 276.24 67.6799H275.52C275.4 67.6799 275.28 67.5599 275.28 67.4399V67.0799C275.28 65.3999 274.8 65.1599 273.72 65.1599C272.64 65.1599 273.6 65.1599 273.48 65.1599H269.04V67.4399C269.04 67.5599 268.92 67.6799 268.8 67.6799H268.08C267.96 67.6799 267.84 67.5599 267.84 67.4399V59.1599C267.84 59.0399 267.96 58.9199 268.08 58.9199H272.88H272.76ZM268.92 63.9599H273.12C274.32 63.8399 275.04 62.9999 275.04 62.1599C275.04 61.3199 274.2 60.2399 272.64 60.2399H268.92V63.9599Z" fill="white" />
  </g>
  <defs>
    <clipPath id="clip0_996_6391">
      <rect width="276.48" height="74.16" fill="white" />
    </clipPath>
  </defs>
</svg>