<svg id="lock" width="16" height="16" viewBox="0 0 16 16" fill="none" xmlns="http://www.w3.org/2000/svg">
  <path fill-rule="evenodd" clip-rule="evenodd" d="M12 6.66667V4C12 1.79133 10.2087 0 8 0C5.79133 0 4 1.79133 4 4V6.66667H2V16H14V6.66667H12ZM8.66667 11.8153V13.3333H7.33333V11.8153C6.93667 11.584 6.66667 11.1593 6.66667 10.6667C6.66667 9.93067 7.264 9.33333 8 9.33333C8.736 9.33333 9.33333 9.93067 9.33333 10.6667C9.33333 11.1587 9.064 11.584 8.66667 11.8153ZM5.33333 4V6.66667H10.6667V4C10.6667 2.52933 9.47 1.33333 8 1.33333C6.52933 1.33333 5.33333 2.52933 5.33333 4Z" fill="currentColor" />
</svg>