<svg width="165" height="116" viewBox="0 0 165 116" fill="none" xmlns="http://www.w3.org/2000/svg">
<g clip-path="url(#clip0_8_945)">
<path d="M85.1 18.2C85.1 19.8 83.8 21.1 82.2 21.1C80.6 21.1 79.3 19.8 79.3 18.2C79.3 16.6 80.6 15.3 82.2 15.3C83.8 15.3 85.1 16.6 85.1 18.2Z" fill="#A69181"/>
<path d="M101.4 12C100.3 13.1 98.4 13.1 97.3 12C96.2 10.9 96.2 9 97.3 7.9C98.4 6.8 100.3 6.8 101.4 7.9C102.5 9 102.5 10.9 101.4 12Z" fill="#A69181"/>
<path d="M84.5 9.50001C84.5 10.8 83.4 11.9 82.1 11.9C80.8 11.9 79.7 10.8 79.7 9.50001C79.7 8.20001 80.8 7.10001 82.1 7.10001C83.4 7.10001 84.5 8.20001 84.5 9.50001Z" fill="#A69181"/>
<path d="M94.9 17.7C94 18.6 92.5 18.6 91.5 17.7C90.6 16.8 90.6 15.3 91.5 14.3C92.4 13.4 93.9 13.4 94.9 14.3C95.8 15.2 95.8 16.7 94.9 17.7Z" fill="#A69181"/>
<path d="M83.9 1.8C83.9 2.8 83.1 3.6 82.1 3.6C81.1 3.6 80.3 2.8 80.3 1.8C80.3 0.8 81.1 0 82.1 0C83.1 0 83.9 0.8 83.9 1.8Z" fill="#A69181"/>
<path d="M90.5 30.4C88.9 30.4 87.6 29.1 87.6 27.5C87.6 25.9 88.9 24.6 90.5 24.6C92.1 24.6 93.4 25.9 93.4 27.5C93.4 29.1 92.1 30.4 90.5 30.4Z" fill="#A69181"/>
<path d="M99.1 29.8C97.8 29.8 96.7 28.7 96.7 27.4C96.7 26.1 97.8 25 99.1 25C100.4 25 101.5 26.1 101.5 27.4C101.5 28.7 100.4 29.8 99.1 29.8Z" fill="#A69181"/>
<path d="M106.9 29.2C105.9 29.2 105.1 28.4 105.1 27.4C105.1 26.4 105.9 25.6 106.9 25.6C107.9 25.6 108.7 26.4 108.7 27.4C108.7 28.4 107.9 29.2 106.9 29.2Z" fill="#A69181"/>
<path d="M78.3 35.8C78.3 34.2 79.6 32.9 81.2 32.9C82.8 32.9 84.1 34.2 84.1 35.8C84.1 37.4 82.8 38.7 81.2 38.7C79.6 38.7 78.3 37.4 78.3 35.8Z" fill="#A69181"/>
<path d="M78.9 44.5C78.9 43.2 80 42.1 81.3 42.1C82.6 42.1 83.7 43.2 83.7 44.5C83.7 45.8 82.6 46.9 81.3 46.9C80 46.9 78.9 45.8 78.9 44.5Z" fill="#A69181"/>
<path d="M79.4 52.2C79.4 51.2 80.2 50.4 81.2 50.4C82.2 50.4 83 51.2 83 52.2C83 53.2 82.2 54 81.2 54C80.2 54 79.4 53.2 79.4 52.2Z" fill="#A69181"/>
<path d="M72.9 23.6C74.5 23.6 75.8 24.9 75.8 26.5C75.8 28.1 74.5 29.4 72.9 29.4C71.3 29.4 70 28.1 70 26.5C70 24.9 71.3 23.6 72.9 23.6Z" fill="#A69181"/>
<path d="M64.2 24.2C65.5 24.2 66.6 25.3 66.6 26.6C66.6 27.9 65.5 29 64.2 29C62.9 29 61.8 27.9 61.8 26.6C61.8 25.3 62.9 24.2 64.2 24.2Z" fill="#A69181"/>
<path d="M56.5 24.7C57.5 24.7 58.3 25.5 58.3 26.5C58.3 27.5 57.5 28.3 56.5 28.3C55.5 28.3 54.7 27.5 54.7 26.5C54.7 25.5 55.5 24.7 56.5 24.7Z" fill="#A69181"/>
<path d="M88.9 23C88.2 23.7 87.1 23.7 86.4 23C85.7 22.3 85.7 21.2 86.4 20.5C87.1 19.8 88.2 19.8 88.9 20.5C89.6 21.2 89.6 22.3 88.9 23Z" fill="#A69181"/>
<path d="M96.6 46.7C95.5 45.6 95.5 43.7 96.6 42.6C97.7 41.5 99.6 41.5 100.7 42.6C101.8 43.7 101.8 45.6 100.7 46.7C99.6 47.8 97.7 47.8 96.6 46.7Z" fill="#A69181"/>
<path d="M90.9 40.2C90 39.3 90 37.8 90.9 36.8C91.8 35.9 93.3 35.9 94.3 36.8C95.2 37.7 95.2 39.2 94.3 40.2C93.4 41.1 91.9 41.1 90.9 40.2Z" fill="#A69181"/>
<path d="M85.7 34.2C85 33.5 85 32.4 85.7 31.7C86.4 31 87.5 31 88.2 31.7C88.9 32.4 88.9 33.5 88.2 34.2C87.5 34.9 86.4 34.9 85.7 34.2Z" fill="#A69181"/>
<path d="M61.9 41.9C63 40.8 64.9 40.8 66 41.9C67.1 43 67.1 44.9 66 46C64.9 47.1 63 47.1 61.9 46C60.8 44.9 60.8 43 61.9 41.9Z" fill="#A69181"/>
<path d="M68.4 36.3C69.3 35.4 70.8 35.4 71.8 36.3C72.7 37.2 72.7 38.7 71.8 39.7C70.9 40.6 69.4 40.6 68.4 39.7C67.5 38.8 67.5 37.3 68.4 36.3Z" fill="#A69181"/>
<path d="M74.5 31C75.2 30.3 76.3 30.3 77 31C77.7 31.7 77.7 32.8 77 33.5C76.3 34.2 75.2 34.2 74.5 33.5C73.8 32.8 73.8 31.7 74.5 31Z" fill="#A69181"/>
<path d="M66.7 7.2C67.8 8.3 67.8 10.2 66.7 11.3C65.6 12.4 63.7 12.4 62.6 11.3C61.5 10.2 61.5 8.3 62.6 7.2C63.7 6.1 65.6 6.1 66.7 7.2Z" fill="#A69181"/>
<path d="M72.4 13.7C73.3 14.6 73.3 16.1 72.4 17.1C71.5 18 70 18 69 17.1C68.1 16.2 68.1 14.7 69 13.7C69.9 12.8 71.4 12.8 72.4 13.7Z" fill="#A69181"/>
<path d="M77.6 19.8C78.3 20.5 78.3 21.6 77.6 22.3C76.9 23 75.8 23 75.1 22.3C74.4 21.6 74.4 20.5 75.1 19.8C75.8 19.1 76.9 19.1 77.6 19.8Z" fill="#A69181"/>
<path d="M16.2 79.4C15 80.7 12.2 80.6 11.6 80.6H5.39998C3.99998 80.6 2.69998 80.5 1.89998 80C1.09998 79.5 0.799976 78.5 0.799976 77.9V76H4.69998V76.4C4.69998 76.7 4.69998 76.9 4.89998 77.2C5.19998 77.6 5.59998 77.6 6.09998 77.6H11.5C12 77.6 12.5 77.6 12.9 77.3C13.1 77.1 13.2 76.9 13.2 76.6V76.3C13.2 75.9 13.1 75.6 12.7 75.4C12.4 75.2 11.8 75.2 11.2 75.2H5.09998C3.79998 75.2 2.49998 74.9 1.69998 74.3C0.599976 73.4 0.599976 72.1 0.599976 71.6V70.8C0.599976 69.3 0.799976 68.1 2.09998 67.3C2.99998 66.7 4.49998 66.7 5.79998 66.7H11.2C12.7 66.7 15.4 67 16.1 68.2C16.5 68.9 16.6 69.5 16.6 70.3V71.1H12.7V70.6C12.7 70.3 12.5 70.1 12.3 70C12.1 69.8 11.8 69.8 11.5 69.8H6.09998C5.69998 69.8 5.39998 69.8 5.09998 70C4.79998 70.2 4.59998 70.5 4.59998 70.9V71.2C4.59998 71.5 4.69998 71.8 4.99998 72C5.19998 72.2 5.49998 72.2 5.89998 72.2L12.7 72.4C13.9 72.4 15 72.6 15.6 73C16.7 73.7 17 75.1 17 76.2V77.1C17 78.2 16.8 78.9 16.1 79.6L16.2 79.4Z" fill="#8A2432"/>
<path d="M36.4 75.6V80.6H31.6V75.7L23.6 66.7H29.4L33.9 72.5L38.5 66.7H44.4L36.4 75.7V75.6Z" fill="#8A2432"/>
<path d="M66.3 79.4C65.1 80.7 62.3 80.6 61.7 80.6H55.5C54.1 80.6 52.8 80.5 52 80C51.2 79.5 50.9 78.5 50.9 77.9V76H54.8V76.4C54.8 76.7 54.8 76.9 55 77.2C55.3 77.6 55.7 77.6 56.2 77.6H61.6C62.1 77.6 62.6 77.6 63 77.3C63.2 77.1 63.3 76.9 63.3 76.6V76.3C63.3 75.9 63.2 75.6 62.8 75.4C62.5 75.2 61.9 75.2 61.3 75.2H55.2C53.9 75.2 52.6 74.9 51.8 74.3C50.7 73.4 50.7 72.1 50.7 71.6V70.8C50.7 69.3 50.9 68.1 52.2 67.3C53.1 66.7 54.6 66.7 55.9 66.7H61.3C62.8 66.7 65.5 67 66.2 68.2C66.6 68.9 66.7 69.5 66.7 70.3V71.1H62.8V70.6C62.8 70.3 62.6 70.1 62.4 70C62.2 69.8 61.9 69.8 61.6 69.8H56.2C55.8 69.8 55.5 69.8 55.2 70C54.9 70.2 54.7 70.5 54.7 70.9V71.2C54.7 71.5 54.8 71.8 55.1 72C55.3 72.2 55.6 72.2 56 72.2L62.8 72.4C64 72.4 65.1 72.6 65.7 73C66.8 73.7 67.1 75.1 67.1 76.2V77.1C67.1 78.2 66.9 78.9 66.2 79.6L66.3 79.4Z" fill="#8A2432"/>
<path d="M84.3 70.2V80.6H79.7V70.2H73.7V66.7H90.1V70.2H84.3Z" fill="#8A2432"/>
<path d="M96.6 80.6V66.7H111.2V70.1H100.8V72H110.7V75.1H100.9V77.2H111.4V80.6H96.7H96.6Z" fill="#8A2432"/>
<path d="M136.8 80.6V70L131.5 80.6H128.2L122.7 70.1V80.6H118.2V66.7H125.8L129.8 75.8L133.6 66.7H141.1V80.6H136.8Z" fill="#8A2432"/>
<path d="M163.5 79.4C162.3 80.7 159.5 80.6 158.9 80.6H152.7C151.3 80.6 150 80.5 149.2 80C148.4 79.5 148.1 78.5 148.1 77.9V76H152V76.4C152 76.7 152 76.9 152.2 77.2C152.5 77.6 152.9 77.6 153.4 77.6H158.8C159.3 77.6 159.8 77.6 160.2 77.3C160.4 77.1 160.5 76.9 160.5 76.6V76.3C160.5 75.9 160.4 75.6 160 75.4C159.7 75.2 159.1 75.2 158.5 75.2H152.4C151.1 75.2 149.8 74.9 149 74.3C147.9 73.4 147.9 72.1 147.9 71.6V70.8C147.9 69.3 148.1 68.1 149.4 67.3C150.3 66.7 151.8 66.7 153.1 66.7H158.5C160 66.7 162.7 67 163.4 68.2C163.8 68.9 163.9 69.5 163.9 70.3V71.1H160V70.6C160 70.3 159.8 70.1 159.6 70C159.4 69.8 159.1 69.8 158.8 69.8H153.4C153 69.8 152.7 69.8 152.4 70C152.1 70.2 151.9 70.5 151.9 70.9V71.2C151.9 71.5 152 71.8 152.3 72C152.5 72.2 152.8 72.2 153.2 72.2L160 72.4C161.2 72.4 162.3 72.6 162.9 73C164 73.7 164.3 75.1 164.3 76.2V77.1C164.3 78.2 164.1 78.9 163.4 79.6L163.5 79.4Z" fill="#8A2432"/>
<path d="M0.299988 100.7V87.4H13.1V88.9H2.29999V93.1H12.8V94.7H2.29999V99.2H13.4V100.7H0.299988Z" fill="#8A2432"/>
<path d="M29.3 100.7L17.6 88.9V100.7H15.9V87.4H18.6L30.2 99.3V87.4H32V100.7H29.2H29.3Z" fill="#8A2432"/>
<path d="M49.8 99.3C48.5 100.9 45.8 100.7 45.2 100.7H41C40.2 100.7 37 100.7 36 99.6C34.9 98.5 34.8 97.5 34.8 96V92C34.8 91 34.8 89.2 36.2 88.2C37.4 87.3 40.1 87.3 41.8 87.3H43.3C45.7 87.3 47.9 87.3 49.3 88.4C50.2 89.1 50.5 90.4 50.5 90.9V91.6H48.6V90.9C48.6 90.4 48.4 90 48 89.7C47.4 89.2 45.8 89 44.4 89H40.8C40 89 37.8 89 37.2 89.6C36.5 90.3 36.5 91.9 36.5 92.4V94.8C36.5 96.1 36.5 97.6 37.1 98.1C37.8 98.7 39 98.9 40.2 98.9H45.2C46.4 98.9 47.6 98.9 48.2 98.4C48.7 98 48.8 97.1 48.8 96.3V95.5H42.1V93.8H50.6V96.6C50.6 97.7 50.4 98.5 49.8 99.2V99.3Z" fill="#8A2432"/>
<path d="M53.2 100.7V87.4H55V100.7H53.2Z" fill="#8A2432"/>
<path d="M71.3 100.7L59.6 88.9V100.7H57.9V87.4H60.6L72.2 99.3V87.4H74V100.7H71.2H71.3Z" fill="#8A2432"/>
<path d="M76.7 100.7V87.4H89.5V88.9H78.6V93.1H89.1V94.7H78.6V99.2H89.7V100.7H76.7Z" fill="#8A2432"/>
<path d="M92.4 100.7V87.4H105.2V88.9H94.3V93.1H104.8V94.7H94.3V99.2H105.4V100.7H92.4Z" fill="#8A2432"/>
<path d="M122.1 94.2C121.4 94.8 120.8 94.9 120.8 94.9C120.7 94.9 121.7 95.1 122.3 95.9C122.7 96.4 122.8 97.1 122.8 97.6V100.7H121V97.2C121 96.6 120.9 96.2 120.4 95.8C120.1 95.5 119.5 95.5 118.9 95.5H109.8V100.7H108.1V87.4H119.2C120.3 87.4 121.2 87.6 121.8 88.3C122.4 89 122.9 89.7 122.9 91.2V92C122.9 92.6 122.9 93.7 122.2 94.3L122.1 94.2ZM121.1 91.3C121.1 90.6 121.1 89.9 120.5 89.3C120.2 89 119.6 88.9 119 88.9H109.8V94H118.9C119.6 94 120.2 94 120.7 93.5C121 93.2 121.1 92.5 121.1 91.9V91.4V91.3Z" fill="#8A2432"/>
<path d="M125.6 100.7V87.4H127.4V100.7H125.6Z" fill="#8A2432"/>
<path d="M143.6 100.7L131.9 88.9V100.7H130.2V87.4H132.9L144.5 99.3V87.4H146.3V100.7H143.5H143.6Z" fill="#8A2432"/>
<path d="M164.1 99.3C162.8 100.9 160.1 100.7 159.5 100.7H155.3C154.5 100.7 151.3 100.7 150.3 99.6C149.2 98.5 149.1 97.5 149.1 96V92C149.1 91 149.1 89.2 150.5 88.2C151.7 87.3 154.4 87.3 156.1 87.3H157.6C160 87.3 162.2 87.3 163.6 88.4C164.5 89.1 164.8 90.4 164.8 90.9V91.6H162.9V90.9C162.9 90.4 162.7 90 162.3 89.7C161.7 89.2 160.1 89 158.7 89H155.1C154.3 89 152.1 89 151.5 89.6C150.8 90.3 150.8 91.9 150.8 92.4V94.8C150.8 96.1 150.8 97.6 151.4 98.1C152.1 98.7 153.3 98.9 154.5 98.9H159.5C160.7 98.9 161.9 98.9 162.5 98.4C163 98 163.1 97.1 163.1 96.3V95.5H156.4V93.8H164.9V96.6C164.9 97.7 164.7 98.5 164.1 99.2V99.3Z" fill="#8A2432"/>
<path d="M4.4 108.3C6.6 108.3 7.7 109.6 7.7 110.9C7.7 112.2 7.4 112.4 6.7 112.9C7.7 113.7 7.7 114.2 7.7 115.3V115.6C7.7 115.7 7.6 115.8 7.5 115.8H6.8C6.7 115.8 6.6 115.7 6.6 115.6V115.3C6.6 113.8 6.1 113.7 5.2 113.7C4.3 113.7 5 113.7 5 113.7H1.1V115.6C1.1 115.7 1 115.8 0.9 115.8H0.2C0.1 115.8 0 115.7 0 115.6V108.4C0 108.3 0.1 108.2 0.2 108.2H4.3L4.4 108.3ZM1.1 112.7H4.8C5.9 112.6 6.4 111.9 6.4 111.1C6.4 110.3 5.7 109.4 4.4 109.4H1.1V112.7Z" fill="#594330"/>
<path d="M18.8 108.3C18.9 108.3 19 108.4 19 108.5V109.2C19 109.3 18.9 109.4 18.8 109.4H12.5V111.6H16.1C16.2 111.6 16.3 111.7 16.3 111.8V112.5C16.3 112.6 16.2 112.7 16.1 112.7H12.5V114.9H18.8C18.9 114.9 19 115 19 115.1V115.8C19 115.9 18.9 116 18.8 116H11.6C11.5 116 11.4 115.9 11.4 115.8V108.6C11.4 108.5 11.5 108.4 11.6 108.4H18.8V108.3Z" fill="#594330"/>
<path d="M29.7 108.3C29.8 108.3 29.9 108.4 29.9 108.5V109.2C29.9 109.3 29.8 109.4 29.7 109.4H25.6C24.4 109.4 23.8 109.9 23.8 110.5C23.8 111.1 24.4 111.6 25.6 111.6H27.7C29.6 111.6 30.5 112.6 30.5 113.6C30.5 114.6 29.4 115.9 27.2 115.9H23.1C23 115.9 22.9 115.8 22.9 115.7V115C22.9 114.9 23 114.8 23.1 114.8H27.2C28.5 114.8 29.2 114.3 29.2 113.7C29.2 113.1 28.5 112.6 27.2 112.6H25.2C23.4 112.6 22.4 111.5 22.4 110.4C22.4 109.3 23.4 108.2 25.5 108.2H29.6L29.7 108.3Z" fill="#594330"/>
<path d="M41.4 108.3C41.5 108.3 41.6 108.4 41.6 108.5V109.2C41.6 109.3 41.5 109.4 41.4 109.4H35.1V111.6H38.7C38.8 111.6 38.9 111.7 38.9 111.8V112.5C38.9 112.6 38.8 112.7 38.7 112.7H35.1V114.9H41.4C41.5 114.9 41.6 115 41.6 115.1V115.8C41.6 115.9 41.5 116 41.4 116H34.2C34.1 116 34 115.9 34 115.8V108.6C34 108.5 34.1 108.4 34.2 108.4H41.4V108.3Z" fill="#594330"/>
<path d="M49.9 108.3C53.6 108.3 53.7 109.8 53.7 111.9V115.7C53.7 115.8 53.6 115.9 53.5 115.9H52.8C52.7 115.9 52.6 115.8 52.6 115.7V113.2H46.6V115.7C46.6 115.8 46.5 115.9 46.4 115.9H45.7C45.6 115.9 45.5 115.8 45.5 115.7V111.9C45.5 109.8 45.6 108.3 49.3 108.3H49.8H49.9ZM49.6 109.4H48.9C47.2 109.4 46.6 109.6 46.6 112.1H52.6C52.6 109.6 52.1 109.4 50.3 109.4H49.5H49.6Z" fill="#594330"/>
<path d="M62 108.3C64.2 108.3 65.3 109.6 65.3 110.9C65.3 112.2 65 112.4 64.3 112.9C65.3 113.7 65.3 114.2 65.3 115.3V115.6C65.3 115.7 65.2 115.8 65.1 115.8H64.4C64.3 115.8 64.2 115.7 64.2 115.6V115.3C64.2 113.8 63.7 113.7 62.8 113.7C61.9 113.7 62.6 113.7 62.6 113.7H58.8V115.6C58.8 115.7 58.7 115.8 58.6 115.8H57.9C57.8 115.8 57.7 115.7 57.7 115.6V108.4C57.7 108.3 57.8 108.2 57.9 108.2H62V108.3ZM58.8 112.7H62.5C63.6 112.6 64.1 111.9 64.1 111.1C64.1 110.3 63.4 109.4 62.1 109.4H58.8V112.7Z" fill="#594330"/>
<path d="M76.3 108.3C76.4 108.3 76.5 108.4 76.5 108.5V109.2C76.5 109.3 76.4 109.4 76.3 109.4H72.2C70.8 109.4 70.2 110.7 70.2 112.1C70.2 113.5 70.9 114.8 72.2 114.8H76.4C76.5 114.8 76.6 114.9 76.6 115V115.7C76.6 115.8 76.5 115.9 76.4 115.9H72.3C70.1 115.9 69 114 69 112.1C69 110.2 70.1 108.3 72.3 108.3H76.4H76.3Z" fill="#594330"/>
<path d="M81.2 108.3C81.3 108.3 81.4 108.4 81.4 108.5V111.5H86.8V108.5C86.8 108.4 86.9 108.3 87 108.3H87.7C87.8 108.3 87.9 108.4 87.9 108.5V115.7C87.9 115.8 87.8 115.9 87.7 115.9H87C86.9 115.9 86.8 115.8 86.8 115.7V112.6H81.4V115.7C81.4 115.8 81.3 115.9 81.2 115.9H80.5C80.4 115.9 80.3 115.8 80.3 115.7V108.5C80.3 108.4 80.4 108.3 80.5 108.3H81.2Z" fill="#594330"/>
<path d="M106.9 108.3C107 108.3 107.1 108.4 107.1 108.5V109.2C107.1 109.3 107 109.4 106.9 109.4H102.8C101.4 109.4 100.8 110.7 100.8 112.1C100.8 113.5 101.5 114.8 102.8 114.8H107C107.1 114.8 107.2 114.9 107.2 115V115.7C107.2 115.8 107.1 115.9 107 115.9H102.9C100.7 115.9 99.6 114 99.6 112.1C99.6 110.2 100.7 108.3 102.9 108.3H107H106.9Z" fill="#594330"/>
<path d="M118.3 108.3C118.4 108.3 118.5 108.4 118.5 108.5V109.2C118.5 109.3 118.4 109.4 118.3 109.4H112V111.6H115.6C115.7 111.6 115.8 111.7 115.8 111.8V112.5C115.8 112.6 115.7 112.7 115.6 112.7H112V114.9H118.3C118.4 114.9 118.5 115 118.5 115.1V115.8C118.5 115.9 118.4 116 118.3 116H111.1C111 116 110.9 115.9 110.9 115.8V108.6C110.9 108.5 111 108.4 111.1 108.4H118.3V108.3Z" fill="#594330"/>
<path d="M129.4 113.6V108.5C129.4 108.4 129.5 108.3 129.6 108.3H130.3C130.4 108.3 130.5 108.4 130.5 108.5V115.7C130.5 115.8 130.4 115.9 130.3 115.9H129.6C129.5 115.9 129.4 115.8 129.4 115.7C127.2 111.9 126.1 109.4 124.5 109.4C122.9 109.4 123.4 109.4 123.4 110.5V115.7C123.4 115.8 123.3 115.9 123.2 115.9H122.5C122.4 115.9 122.3 115.8 122.3 115.7V110.5C122.3 108.3 123.4 108.3 124.5 108.3C126.7 108.3 127.9 110.9 129.4 113.6Z" fill="#594330"/>
<path d="M137.7 108.3H141.8C141.9 108.3 142 108.4 142 108.5V109.2C142 109.3 142 109.4 141.8 109.4H138.8V115.7C138.8 115.8 138.7 115.9 138.6 115.9H137.9C137.8 115.9 137.7 115.8 137.7 115.7V109.4H134.7C134.6 109.4 134.5 109.3 134.5 109.2V108.5C134.5 108.4 134.6 108.3 134.7 108.3H137.7Z" fill="#594330"/>
<path d="M153.2 108.3C153.3 108.3 153.4 108.4 153.4 108.5V109.2C153.4 109.3 153.3 109.4 153.2 109.4H146.9V111.6H150.5C150.6 111.6 150.7 111.7 150.7 111.8V112.5C150.7 112.6 150.6 112.7 150.5 112.7H146.9V114.9H153.2C153.3 114.9 153.4 115 153.4 115.1V115.8C153.4 115.9 153.3 116 153.2 116H146C145.9 116 145.8 115.9 145.8 115.8V108.6C145.8 108.5 145.9 108.4 146 108.4H153.2V108.3Z" fill="#594330"/>
<path d="M161.6 108.3C163.8 108.3 164.9 109.6 164.9 110.9C164.9 112.2 164.6 112.4 163.9 112.9C164.9 113.7 164.9 114.2 164.9 115.3V115.6C164.9 115.7 164.8 115.8 164.7 115.8H164C163.9 115.8 163.8 115.7 163.8 115.6V115.3C163.8 113.8 163.3 113.7 162.4 113.7C161.5 113.7 162.2 113.7 162.2 113.7H158.4V115.6C158.4 115.7 158.3 115.8 158.2 115.8H157.5C157.4 115.8 157.3 115.7 157.3 115.6V108.4C157.3 108.3 157.4 108.2 157.5 108.2H161.6V108.3ZM158.3 112.7H162C163.1 112.6 163.6 111.9 163.6 111.1C163.6 110.3 162.9 109.4 161.6 109.4H158.3V112.7Z" fill="#594330"/>
</g>
<defs>
<clipPath id="clip0_8_945">
<rect width="164.8" height="115.9" fill="white"/>
</clipPath>
</defs>
</svg>
