<svg width="22" height="22" viewBox="0 0 22 22" fill="none" xmlns="http://www.w3.org/2000/svg">
  <path d="M19.8202 0.870117H2.17561C1.36711 0.870117 0.710205 1.53621 0.710205 2.3539V19.9663C0.710205 20.784 1.36711 21.4501 2.17561 21.4501H19.8202C20.6287 21.4501 21.2902 20.784 21.2902 19.9663V2.3539C21.2902 1.53621 20.6287 0.870117 19.8202 0.870117ZM6.93014 18.5101H3.87989V8.68868H6.93474V18.5101H6.93014ZM5.40502 7.3473C4.42655 7.3473 3.63642 6.55259 3.63642 5.57871C3.63642 4.60484 4.42655 3.81012 5.40502 3.81012C6.37889 3.81012 7.17361 4.60484 7.17361 5.57871C7.17361 6.55718 6.38349 7.3473 5.40502 7.3473ZM18.364 18.5101H15.3137V13.7326C15.3137 12.5934 15.2908 11.128 13.7289 11.128C12.1395 11.128 11.896 12.3683 11.896 13.6499V18.5101H8.84574V8.68868H11.772V10.0301H11.8133C12.2221 9.2583 13.219 8.44521 14.7028 8.44521C17.7898 8.44521 18.364 10.4802 18.364 13.1262V18.5101Z" fill="currentColor" />
</svg>