<svg width="20" height="20" viewBox="0 0 20 20" fill="none" xmlns="http://www.w3.org/2000/svg">
  <path d="M5.21429 12.8313L5.21431 12.8313L5.2104 12.8267C4.07527 11.4985 3.4273 9.82194 3.37487 8.07581C3.33494 6.3634 3.99771 4.7097 5.2098 3.50008C6.44937 2.26731 8.12664 1.57523 9.87477 1.57523C11.623 1.57523 13.3003 2.26743 14.5399 3.5002C15.7512 4.70987 16.4139 6.36357 16.3732 8.07578C16.3209 9.82191 15.6737 11.4985 14.5386 12.8267L14.5386 12.8267L14.5348 12.8313L9.87452 18.3917L5.21429 12.8313Z" stroke="currentColor" stroke-width="1.25" />
  <path d="M11.6796 9.67986C11.234 10.125 10.6302 10.3749 10.0004 10.375C9.37004 10.3739 8.76669 10.1236 8.32183 9.67873C7.87677 9.23362 7.62613 8.62945 7.625 7.99982C7.62513 7.37036 7.8754 6.76648 8.32053 6.32065C8.76648 5.87529 9.37047 5.625 10 5.625C10.6295 5.625 11.2335 5.87528 11.6794 6.32058C12.1247 6.76658 12.375 7.37069 12.375 8.00031C12.375 8.6299 12.1248 9.23392 11.6796 9.67986Z" stroke="currentColor" stroke-width="1.25" />
</svg>