<svg width="20" height="20" viewBox="0 0 20 20" fill="none" xmlns="http://www.w3.org/2000/svg">
  <path fill-rule="evenodd" clip-rule="evenodd" d="M14.4241 12.8936L19.2162 17.6922C19.2268 17.7027 19.237 17.7134 19.247 17.7242L20 18.4772L18.4769 20.0002L17.7647 19.288C17.7393 19.2667 17.7146 19.244 17.6906 19.2199L12.8721 14.4473C11.4528 15.5467 9.7385 16.0828 8.02533 16.0828C5.96392 16.0828 3.9286 15.3048 2.3493 13.7238C-0.783101 10.5879 -0.783101 5.49494 2.3493 2.35904C3.92849 0.776912 5.96392 0 8.02533 0C10.0867 0 12.1221 0.777984 13.7014 2.35904C16.5933 5.22689 16.8338 9.75772 14.4241 12.8936ZM3.90123 12.1971C5.02551 13.2955 6.47206 13.9122 8.05135 13.9122C9.60452 13.9122 11.1033 13.3227 12.2015 12.1971C13.2986 11.0716 13.9146 9.62343 13.9146 8.04237C13.9146 6.46131 13.3258 4.98704 12.2015 3.88762C11.0772 2.78926 9.63065 2.17253 8.05135 2.17253C6.47206 2.17253 4.99944 2.78819 3.90123 3.88762C1.62536 6.19337 1.62536 9.91871 3.90123 12.1971Z" fill="currentColor" />
</svg>