<svg width="74" height="74" viewBox="0 0 74 74" fill="none" xmlns="http://www.w3.org/2000/svg">
  <path d="M41.76 24.9599C41.76 27.2399 39.96 29.0399 37.68 29.0399C35.4 29.0399 33.6 27.2399 33.6 24.9599C33.6 22.6799 35.4 20.8799 37.68 20.8799C39.96 20.8799 41.76 22.6799 41.76 24.9599Z" fill="currentColor" />
  <path d="M64.2 16.56C62.64 18.12 60.12 18.12 58.56 16.56C57 15 57 12.48 58.56 10.92C60.12 9.36 62.64 9.36 64.2 10.92C65.76 12.48 65.76 15 64.2 16.56Z" fill="currentColor" />
  <path d="M40.92 13.0803C40.92 14.8803 39.48 16.3203 37.68 16.3203C35.88 16.3203 34.44 14.8803 34.44 13.0803C34.44 11.2803 35.88 9.84033 37.68 9.84033C39.48 9.84033 40.92 11.2803 40.92 13.0803Z" fill="currentColor" />
  <path d="M55.2 24.3596C53.88 25.6796 51.84 25.6796 50.64 24.3596C49.32 23.0396 49.32 20.9996 50.64 19.7996C51.96 18.4796 54 18.4796 55.2 19.7996C56.52 21.1196 56.52 23.1596 55.2 24.3596Z" fill="currentColor" />
  <path d="M40.2 2.4C40.2 3.72 39.12 4.8 37.8 4.8C36.48 4.8 35.4 3.72 35.4 2.4C35.4 1.08 36.48 0 37.8 0C39.12 0 40.2 1.08 40.2 2.4Z" fill="currentColor" />
  <path d="M49.2 41.7601C46.92 41.7601 45.12 39.9601 45.12 37.6801C45.12 35.4001 46.92 33.6001 49.2 33.6001C51.48 33.6001 53.28 35.4001 53.28 37.6801C53.28 39.9601 51.48 41.7601 49.2 41.7601Z" fill="currentColor" />
  <path d="M61.08 40.9204C59.28 40.9204 57.84 39.4804 57.84 37.6804C57.84 35.8804 59.28 34.4404 61.08 34.4404C62.88 34.4404 64.32 35.8804 64.32 37.6804C64.32 39.4804 62.88 40.9204 61.08 40.9204Z" fill="currentColor" />
  <path d="M71.64 40.1999C70.32 40.1999 69.24 39.1199 69.24 37.7999C69.24 36.4799 70.32 35.3999 71.64 35.3999C72.96 35.3999 74.04 36.4799 74.04 37.7999C74.04 39.1199 72.96 40.1999 71.64 40.1999Z" fill="currentColor" />
  <path d="M32.4 49.2001C32.4 46.9201 34.2 45.1201 36.48 45.1201C38.76 45.1201 40.56 46.9201 40.56 49.2001C40.56 51.4801 38.76 53.2801 36.48 53.2801C34.2 53.2801 32.4 51.4801 32.4 49.2001Z" fill="currentColor" />
  <path d="M33.24 61.0803C33.24 59.2803 34.68 57.8403 36.48 57.8403C38.28 57.8403 39.72 59.2803 39.72 61.0803C39.72 62.8803 38.28 64.3203 36.48 64.3203C34.68 64.3203 33.24 62.8803 33.24 61.0803Z" fill="currentColor" />
  <path d="M33.96 71.6402C33.96 70.3202 35.04 69.2402 36.36 69.2402C37.68 69.2402 38.76 70.3202 38.76 71.6402C38.76 72.9602 37.68 74.0402 36.36 74.0402C35.04 74.0402 33.96 72.9602 33.96 71.6402Z" fill="currentColor" />
  <path d="M24.96 32.3999C27.24 32.3999 29.04 34.1999 29.04 36.4799C29.04 38.7599 27.24 40.5599 24.96 40.5599C22.68 40.5599 20.88 38.7599 20.88 36.4799C20.88 34.1999 22.68 32.3999 24.96 32.3999Z" fill="currentColor" />
  <path d="M13.08 33.2402C14.88 33.2402 16.32 34.6802 16.32 36.4802C16.32 38.2802 14.88 39.7202 13.08 39.7202C11.28 39.7202 9.84 38.2802 9.84 36.4802C9.84 34.6802 11.28 33.2402 13.08 33.2402Z" fill="currentColor" />
  <path d="M2.4 33.96C3.72 33.96 4.8 35.04 4.8 36.36C4.8 37.68 3.72 38.76 2.4 38.76C1.08 38.76 0 37.68 0 36.36C0 35.04 1.08 33.96 2.4 33.96Z" fill="currentColor" />
  <path d="M46.92 31.5599C45.96 32.5199 44.4 32.5199 43.44 31.5599C42.48 30.5999 42.48 29.0399 43.44 28.0799C44.4 27.1199 45.96 27.1199 46.92 28.0799C47.88 29.0399 47.88 30.5999 46.92 31.5599Z" fill="currentColor" />
  <path d="M57.6 64.2001C56.04 62.6401 56.04 60.1201 57.6 58.5601C59.16 57.0001 61.68 57.0001 63.24 58.5601C64.8 60.1201 64.8 62.6401 63.24 64.2001C61.68 65.7601 59.16 65.7601 57.6 64.2001Z" fill="currentColor" />
  <path d="M49.8 55.1999C48.48 53.8799 48.48 51.8399 49.8 50.6399C51.12 49.3199 53.16 49.3199 54.36 50.6399C55.68 51.9599 55.68 53.9999 54.36 55.1999C53.04 56.5199 51 56.5199 49.8 55.1999Z" fill="currentColor" />
  <path d="M42.6 46.9202C41.64 45.9602 41.64 44.4002 42.6 43.4402C43.56 42.4802 45.12 42.4802 46.08 43.4402C47.04 44.4002 47.04 45.9602 46.08 46.9202C45.12 47.8802 43.56 47.8802 42.6 46.9202Z" fill="currentColor" />
  <path d="M9.96 57.5997C11.52 56.0397 14.04 56.0397 15.6 57.5997C17.16 59.1597 17.16 61.6797 15.6 63.2397C14.04 64.7997 11.52 64.7997 9.96 63.2397C8.4 61.6797 8.4 59.1597 9.96 57.5997Z" fill="currentColor" />
  <path d="M18.84 49.7996C20.16 48.4796 22.2 48.4796 23.4 49.7996C24.72 51.1196 24.72 53.1596 23.4 54.3596C22.08 55.6796 20.04 55.6796 18.84 54.3596C17.52 53.0396 17.52 50.9996 18.84 49.7996Z" fill="currentColor" />
  <path d="M27.24 42.5999C28.2 41.6399 29.76 41.6399 30.72 42.5999C31.68 43.5599 31.68 45.1199 30.72 46.0799C29.76 47.0399 28.2 47.0399 27.24 46.0799C26.28 45.1199 26.28 43.5599 27.24 42.5999Z" fill="currentColor" />
  <path d="M16.56 9.96004C18.12 11.52 18.12 14.04 16.56 15.6C15 17.16 12.48 17.16 10.92 15.6C9.36 14.04 9.36 11.52 10.92 9.96004C12.48 8.40004 15 8.40004 16.56 9.96004Z" fill="currentColor" />
  <path d="M24.36 18.8401C25.68 20.1601 25.68 22.2001 24.36 23.4001C23.04 24.7201 21 24.7201 19.8 23.4001C18.48 22.0801 18.48 20.0401 19.8 18.8401C21.12 17.5201 23.16 17.5201 24.36 18.8401Z" fill="currentColor" />
  <path d="M31.56 27.24C32.52 28.2 32.52 29.76 31.56 30.72C30.6 31.68 29.04 31.68 28.08 30.72C27.12 29.76 27.12 28.2 28.08 27.24C29.04 26.28 30.6 26.28 31.56 27.24Z" fill="currentColor" />
</svg>