<svg width="24" height="17" viewBox="0 0 24 17" fill="none" xmlns="http://www.w3.org/2000/svg">
  <path d="M12.0724 0.660156H12.1976C13.3536 0.66436 19.211 0.706402 20.7903 1.12962C21.2678 1.25878 21.7028 1.51054 22.052 1.85974C22.4012 2.20894 22.6523 2.64335 22.7803 3.11956C22.9223 3.65208 23.0222 4.35697 23.0897 5.08428L23.1037 5.23002L23.1347 5.59438L23.1459 5.74012C23.2373 7.02098 23.2486 8.22055 23.25 8.4826V8.58771C23.2486 8.85957 23.2359 10.1404 23.1347 11.4745L23.1234 11.6217L23.1108 11.7674C23.0405 12.569 22.9364 13.365 22.7803 13.9508C22.6523 14.427 22.4012 14.8614 22.052 15.2106C21.7028 15.5598 21.2678 15.8115 20.7903 15.9407C19.159 16.3779 12.9584 16.4088 12.0991 16.4102H11.8994C11.4649 16.4102 9.66759 16.4017 7.7831 16.3373L7.54402 16.3289L7.42167 16.3233L7.18118 16.3135L6.9407 16.3037C5.37966 16.235 3.89317 16.1243 3.20828 15.9393C2.73101 15.8103 2.29606 15.5587 1.94687 15.2098C1.59767 14.8608 1.34646 14.4267 1.21831 13.9508C1.06221 13.3664 0.958138 12.569 0.887821 11.7674L0.87657 11.6203L0.86532 11.4745C0.795514 10.525 0.757053 9.57341 0.75 8.62134L0.75 8.44897C0.752813 8.14768 0.764063 7.10646 0.840006 5.95733L0.84985 5.81299L0.854069 5.74012L0.86532 5.59438L0.896259 5.23002L0.910323 5.08428C0.977827 4.35697 1.07768 3.65068 1.21972 3.11956C1.34765 2.64335 1.59877 2.20894 1.94798 1.85974C2.29718 1.51054 2.73224 1.25878 3.20969 1.12962C3.89457 0.947437 5.38107 0.835327 6.94211 0.765259L7.18118 0.755449L7.42307 0.747041L7.54402 0.742837L7.7845 0.733028C9.12293 0.690151 10.4619 0.666325 11.801 0.661558L12.0724 0.660156ZM9.75056 5.15855V11.9104L15.5967 8.53586L9.75056 5.15855Z" fill="currentColor" />
</svg>